<svg width="32" height="32" viewBox="0 0 32 32" fill="none" xmlns="http://www.w3.org/2000/svg">
<circle cx="16" cy="16" r="16" fill="#C07DFF"/>
<g clip-path="url(#clip0_1856_3459)">
<path d="M16 6C14.0222 6 12.0888 6.58649 10.4443 7.6853C8.79981 8.78412 7.51809 10.3459 6.76121 12.1732C6.00433 14.0004 5.8063 16.0111 6.19215 17.9509C6.578 19.8907 7.53041 21.6725 8.92894 23.0711C10.3275 24.4696 12.1093 25.422 14.0491 25.8079C15.9889 26.1937 17.9996 25.9957 19.8268 25.2388C21.6541 24.4819 23.2159 23.2002 24.3147 21.5557C25.4135 19.9112 26 17.9778 26 16C25.9971 13.3487 24.9426 10.8068 23.0679 8.9321C21.1932 7.05736 18.6513 6.00287 16 6ZM16 24.3333C14.3518 24.3333 12.7407 23.8446 11.3703 22.9289C9.99984 22.0132 8.93174 20.7117 8.30101 19.189C7.67028 17.6663 7.50525 15.9908 7.82679 14.3742C8.14834 12.7577 8.94201 11.2729 10.1074 10.1074C11.2729 8.94201 12.7577 8.14833 14.3743 7.82679C15.9908 7.50525 17.6663 7.67027 19.189 8.301C20.7118 8.93173 22.0132 9.99984 22.9289 11.3702C23.8446 12.7407 24.3333 14.3518 24.3333 16C24.3309 18.2094 23.4522 20.3276 21.8899 21.8899C20.3276 23.4522 18.2094 24.3309 16 24.3333Z" fill="white"/>
<path d="M15.9999 14.333H15.1666C14.9456 14.333 14.7336 14.4208 14.5773 14.5771C14.421 14.7334 14.3333 14.9453 14.3333 15.1663C14.3333 15.3874 14.421 15.5993 14.5773 15.7556C14.7336 15.9119 14.9456 15.9997 15.1666 15.9997H15.9999V20.9997C15.9999 21.2207 16.0877 21.4327 16.244 21.5889C16.4003 21.7452 16.6122 21.833 16.8333 21.833C17.0543 21.833 17.2662 21.7452 17.4225 21.5889C17.5788 21.4327 17.6666 21.2207 17.6666 20.9997V15.9997C17.6666 15.5576 17.491 15.1337 17.1784 14.8212C16.8659 14.5086 16.4419 14.333 15.9999 14.333Z" fill="white"/>
<path d="M16 12.667C16.6904 12.667 17.25 12.1073 17.25 11.417C17.25 10.7266 16.6904 10.167 16 10.167C15.3096 10.167 14.75 10.7266 14.75 11.417C14.75 12.1073 15.3096 12.667 16 12.667Z" fill="white"/>
</g>
<defs>
<clipPath id="clip0_1856_3459">
<rect width="20" height="20" fill="white" transform="translate(6 6)"/>
</clipPath>
</defs>
</svg>
