<svg width="56" height="40" viewBox="0 0 56 40" fill="none" xmlns="http://www.w3.org/2000/svg">
<rect width="56" height="40" rx="8" fill="url(#paint0_linear_423_7775)"/>
<path d="M32.386 22.931C32.518 22.931 32.635 22.982 32.737 23.084L33.691 24.119C33.163 24.773 32.512 25.274 31.738 25.622C30.97 25.97 30.046 26.144 28.966 26.144C28 26.144 27.13 25.979 26.356 25.649C25.588 25.319 24.931 24.86 24.385 24.272C23.839 23.684 23.419 22.982 23.125 22.166C22.837 21.35 22.693 20.459 22.693 19.493C22.693 18.515 22.849 17.621 23.161 16.811C23.473 15.995 23.911 15.293 24.475 14.705C25.045 14.117 25.723 13.661 26.509 13.337C27.295 13.007 28.165 12.842 29.119 12.842C30.067 12.842 30.907 12.998 31.639 13.31C32.377 13.622 33.004 14.03 33.52 14.534L32.71 15.659C32.662 15.731 32.599 15.794 32.521 15.848C32.449 15.902 32.347 15.929 32.215 15.929C32.125 15.929 32.032 15.905 31.936 15.857C31.84 15.803 31.735 15.74 31.621 15.668C31.507 15.59 31.375 15.506 31.225 15.416C31.075 15.326 30.901 15.245 30.703 15.173C30.505 15.095 30.274 15.032 30.01 14.984C29.752 14.93 29.452 14.903 29.11 14.903C28.528 14.903 27.994 15.008 27.508 15.218C27.028 15.422 26.614 15.722 26.266 16.118C25.918 16.508 25.648 16.988 25.456 17.558C25.264 18.122 25.168 18.767 25.168 19.493C25.168 20.225 25.27 20.876 25.474 21.446C25.684 22.016 25.966 22.496 26.32 22.886C26.674 23.276 27.091 23.576 27.571 23.786C28.051 23.99 28.567 24.092 29.119 24.092C29.449 24.092 29.746 24.074 30.01 24.038C30.28 24.002 30.526 23.945 30.748 23.867C30.976 23.789 31.189 23.69 31.387 23.57C31.591 23.444 31.792 23.291 31.99 23.111C32.05 23.057 32.113 23.015 32.179 22.985C32.245 22.949 32.314 22.931 32.386 22.931Z" fill="white"/>
<path d="M22 30.59H33.907V31.481H22V30.59Z" fill="white"/>
<defs>
<linearGradient id="paint0_linear_423_7775" x1="-7.79182e-07" y1="57" x2="51" y2="-22" gradientUnits="userSpaceOnUse">
<stop stop-color="#54B25A"/>
<stop offset="1" stop-color="#BBD9B9"/>
</linearGradient>
</defs>
</svg>
