<svg width="56" height="40" viewBox="0 0 56 40" fill="none" xmlns="http://www.w3.org/2000/svg">
<rect width="56" height="40" rx="8" fill="url(#paint0_linear_423_7789)"/>
<path d="M28.441 26.877C29.2183 26.7743 29.805 26.514 30.201 26.096C30.6043 25.6707 30.806 25.117 30.806 24.435C30.806 24.1563 30.7547 23.9143 30.652 23.709C30.5567 23.4963 30.4173 23.3093 30.234 23.148C30.058 22.9867 29.849 22.8473 29.607 22.73C29.365 22.6127 29.101 22.5027 28.815 22.4L28.441 26.877ZM27.737 15.25C27.3263 15.3013 26.978 15.3893 26.692 15.514C26.406 15.6313 26.1713 15.778 25.988 15.954C25.8047 16.13 25.669 16.328 25.581 16.548C25.5003 16.768 25.46 16.999 25.46 17.241C25.46 17.5197 25.5077 17.7653 25.603 17.978C25.7057 18.1833 25.8413 18.3703 26.01 18.539C26.186 18.7003 26.3913 18.847 26.626 18.979C26.8607 19.1037 27.1173 19.221 27.396 19.331L27.737 15.25ZM29.024 19.859C29.552 20.0203 30.0763 20.2 30.597 20.398C31.1177 20.5887 31.5833 20.838 31.994 21.146C32.412 21.454 32.7493 21.839 33.006 22.301C33.2627 22.7557 33.391 23.3277 33.391 24.017C33.391 24.699 33.2773 25.3407 33.05 25.942C32.8227 26.536 32.489 27.064 32.049 27.526C31.609 27.9807 31.07 28.3547 30.432 28.648C29.794 28.934 29.0643 29.1027 28.243 29.154L28.111 30.771C28.1037 30.9397 28.0303 31.0937 27.891 31.233C27.759 31.3797 27.5903 31.453 27.385 31.453H26.384L26.582 29.099C25.724 28.9817 24.9173 28.747 24.162 28.395C23.4067 28.043 22.765 27.6067 22.237 27.086L23.073 25.843C23.1463 25.733 23.2417 25.645 23.359 25.579C23.4837 25.5057 23.6157 25.469 23.755 25.469C23.9163 25.469 24.0887 25.5277 24.272 25.645C24.4553 25.755 24.6643 25.887 24.899 26.041C25.1337 26.1877 25.4013 26.338 25.702 26.492C26.0027 26.646 26.3583 26.7597 26.769 26.833L27.176 21.916C26.6553 21.7693 26.1383 21.597 25.625 21.399C25.119 21.201 24.6607 20.9407 24.25 20.618C23.8467 20.288 23.5203 19.8737 23.271 19.375C23.0217 18.8763 22.897 18.253 22.897 17.505C22.897 16.9477 23.007 16.405 23.227 15.877C23.447 15.3417 23.7697 14.865 24.195 14.447C24.6277 14.029 25.1557 13.6843 25.779 13.413C26.4023 13.1417 27.1173 12.9877 27.924 12.951L28.045 11.565C28.0597 11.389 28.133 11.2313 28.265 11.092C28.397 10.9527 28.5693 10.883 28.782 10.883H29.783L29.607 13.039C30.3843 13.1637 31.0553 13.3873 31.62 13.71C32.1847 14.0253 32.6723 14.381 33.083 14.777L32.423 15.778C32.3277 15.9247 32.2287 16.0347 32.126 16.108C32.0233 16.1813 31.8987 16.218 31.752 16.218C31.642 16.218 31.51 16.185 31.356 16.119C31.202 16.0457 31.0297 15.9613 30.839 15.866C30.6483 15.7633 30.432 15.6607 30.19 15.558C29.9553 15.4553 29.695 15.371 29.409 15.305L29.024 19.859Z" fill="white"/>
<defs>
<linearGradient id="paint0_linear_423_7789" x1="-7.79182e-07" y1="57" x2="51" y2="-22" gradientUnits="userSpaceOnUse">
<stop stop-color="#54B25A"/>
<stop offset="1" stop-color="#BBD9B9"/>
</linearGradient>
</defs>
</svg>
