<svg width="32" height="32" viewBox="0 0 32 32" fill="none" xmlns="http://www.w3.org/2000/svg">
<path d="M25.6081 20.7429V7.56278C25.6081 5.92516 24.2806 4.59766 22.643 4.59766H2.96513C1.3275 4.59759 0 5.92516 0 7.56278V20.7429C0 22.3805 1.3275 23.708 2.96513 23.708H4.21469C4.599 23.708 4.95419 23.9128 5.14681 24.2453L7.14394 27.6933H10.8314L12.8286 24.2453C13.0212 23.9128 13.3764 23.708 13.7607 23.708H22.6429C24.2806 23.708 25.6081 22.3805 25.6081 20.7429Z" fill="#FFE07D"/>
<path d="M26.4066 4.59766H22.3301C23.9676 4.59766 25.2952 5.92522 25.2952 7.56278V20.7429C25.2952 22.3805 23.9676 23.708 22.3301 23.708H26.4066C28.0442 23.708 29.3718 22.3805 29.3718 20.7429V7.56284C29.3718 5.92522 28.0443 4.59766 26.4066 4.59766Z" fill="#FFD064"/>
<path d="M9.14068 24.2463L7.14355 27.6943L8.4363 29.9262C8.76818 30.4992 9.59549 30.4992 9.92743 29.9262L13.2173 24.2463C13.4099 23.9137 13.7651 23.709 14.1494 23.709H10.0729C9.68849 23.709 9.3333 23.9137 9.14068 24.2463Z" fill="#FFD064"/>
<path d="M25.4354 19.0615H3.47311C3.20636 19.0615 2.99023 18.8453 2.99023 18.5786C2.99023 18.3119 3.20642 18.0957 3.47311 18.0957H25.4354C25.7021 18.0957 25.9182 18.3119 25.9182 18.5786C25.9182 18.8453 25.7021 19.0615 25.4354 19.0615Z" fill="#F0F7FF"/>
<path d="M16.838 14.5673H3.47311C3.20636 14.5673 2.99023 14.3511 2.99023 14.0844C2.99023 13.8177 3.20642 13.6016 3.47311 13.6016H16.838C17.1047 13.6016 17.3209 13.8177 17.3209 14.0844C17.3209 14.3511 17.1047 14.5673 16.838 14.5673Z" fill="#F0F7FF"/>
<path d="M16.838 10.0712H3.47311C3.20636 10.0712 2.99023 9.85503 2.99023 9.58834C2.99023 9.32166 3.20642 9.10547 3.47311 9.10547H16.838C17.1047 9.10547 17.3209 9.32166 17.3209 9.58834C17.3209 9.85503 17.1047 10.0712 16.838 10.0712Z" fill="#F0F7FF"/>
<path d="M28.2584 8.655C28.2584 5.56531 25.9957 3.006 23.0372 2.53906L22.6663 2.65175C21.0417 3.7275 19.9805 5.56444 19.9805 7.65881C19.9805 10.884 22.5212 13.5155 25.7102 13.6616C27.2544 12.5352 28.2584 10.7127 28.2584 8.655Z" fill="#E28086"/>
<path d="M25.9898 1.64844C24.7607 1.64844 23.618 2.01769 22.666 2.65088C25.6758 2.97831 28.0183 5.52763 28.0183 8.6245C28.0183 10.7144 26.9513 12.5549 25.3325 13.6316C25.5484 13.6551 25.7676 13.6675 25.9897 13.6675C29.3087 13.6675 31.9992 10.9769 31.9992 7.65794C31.9992 4.33894 29.3087 1.64844 25.9898 1.64844Z" fill="#DD636E"/>
<path d="M26.1159 11.3346C25.8492 11.3346 25.633 11.1184 25.633 10.8517V4.94622H24.7505C24.4838 4.94622 24.2676 4.73003 24.2676 4.46334C24.2676 4.19659 24.4838 3.98047 24.7505 3.98047H26.1159C26.3826 3.98047 26.5988 4.19666 26.5988 4.46334V10.8517C26.5988 11.1184 26.3826 11.3346 26.1159 11.3346Z" fill="#F0F7FF"/>
</svg>
