<svg width="24" height="24" viewBox="0 0 24 24" fill="none" xmlns="http://www.w3.org/2000/svg">
<g clip-path="url(#clip0_508_4885)">
<path d="M24 11.9998C24 16.4108 20.411 19.9998 16 19.9998H3L5.293 22.2928C5.48051 22.4804 5.58585 22.7347 5.58585 22.9998C5.58585 23.265 5.48051 23.5193 5.293 23.7069C5.10549 23.8944 4.85118 23.9997 4.586 23.9997C4.32082 23.9997 4.06651 23.8944 3.879 23.7069L0.586 20.4138C0.211303 20.0387 0.00084074 19.5301 0.00084074 18.9998C0.00084074 18.4696 0.211303 17.961 0.586 17.5858L3.879 14.2928C3.97184 14.2 4.08207 14.1264 4.20337 14.0761C4.32468 14.0259 4.4547 14 4.586 14C4.7173 14 4.84732 14.0259 4.96863 14.0761C5.08993 14.1264 5.20016 14.2 5.293 14.2928C5.38584 14.3857 5.45949 14.4959 5.50974 14.6172C5.55999 14.7385 5.58585 14.8685 5.58585 14.9998C5.58585 15.1312 5.55999 15.2612 5.50974 15.3825C5.45949 15.5038 5.38584 15.614 5.293 15.7068L3 17.9998H16C19.309 17.9998 22 15.3088 22 11.9998C22 11.7346 22.1054 11.4803 22.2929 11.2927C22.4804 11.1052 22.7348 10.9998 23 10.9998C23.2652 10.9998 23.5196 11.1052 23.7071 11.2927C23.8946 11.4803 24 11.7346 24 11.9998ZM1 12.9998C1.26522 12.9998 1.51957 12.8945 1.70711 12.707C1.89464 12.5194 2 12.2651 2 11.9998C2 8.69085 4.691 5.99985 8 5.99985H21L18.707 8.29285C18.6142 8.38569 18.5405 8.49592 18.4903 8.61722C18.44 8.73853 18.4142 8.86855 18.4142 8.99985C18.4142 9.13115 18.44 9.26117 18.4903 9.38247C18.5405 9.50378 18.6142 9.614 18.707 9.70685C18.7998 9.79969 18.9101 9.87334 19.0314 9.92359C19.1527 9.97384 19.2827 9.9997 19.414 9.9997C19.5453 9.9997 19.6753 9.97384 19.7966 9.92359C19.9179 9.87334 20.0282 9.79969 20.121 9.70685L23.414 6.41385C24.194 5.63485 24.194 4.36485 23.414 3.58585L20.121 0.292849C20.0282 0.200004 19.9179 0.126356 19.7966 0.076109C19.6753 0.0258619 19.5453 0 19.414 0C19.2827 0 19.1527 0.0258619 19.0314 0.076109C18.9101 0.126356 18.7998 0.200004 18.707 0.292849C18.6142 0.385694 18.5405 0.495916 18.4903 0.617223C18.44 0.738531 18.4142 0.868547 18.4142 0.999849C18.4142 1.13115 18.44 1.26117 18.4903 1.38247C18.5405 1.50378 18.6142 1.614 18.707 1.70685L21 3.99985H8C3.589 3.99985 0 7.58885 0 11.9998C0 12.2651 0.105357 12.5194 0.292893 12.707C0.48043 12.8945 0.734784 12.9998 1 12.9998Z" fill="#54B25A"/>
</g>
<defs>
<clipPath id="clip0_508_4885">
<rect width="24" height="24" fill="white"/>
</clipPath>
</defs>
</svg>
