<svg width="14" height="14" viewBox="0 0 14 14" fill="none" xmlns="http://www.w3.org/2000/svg">
<path d="M14 4.12006C14.0004 4.20119 13.9857 4.28162 13.9567 4.35673C13.9277 4.43184 13.8849 4.50016 13.8309 4.55776L9.06583 9.59442C8.79495 9.88148 8.47315 10.1092 8.11886 10.2646C7.76457 10.42 7.38476 10.5 7.00119 10.5C6.61761 10.5 6.2378 10.42 5.88352 10.2646C5.52923 10.1092 5.20743 9.88148 4.93654 9.59442L0.171524 4.55776C0.117144 4.50028 0.0740078 4.43204 0.0445777 4.35694C0.0151475 4.28184 5.72985e-10 4.20135 0 4.12006C-5.72984e-10 4.03877 0.0151475 3.95828 0.0445777 3.88317C0.0740078 3.80807 0.117144 3.73983 0.171524 3.68235C0.225904 3.62487 0.290462 3.57928 0.361513 3.54817C0.432564 3.51706 0.508715 3.50105 0.58562 3.50105C0.662525 3.50105 0.738676 3.51706 0.809727 3.54817C0.880778 3.57928 0.945336 3.62487 0.999716 3.68235L5.76473 8.71902C6.0928 9.06536 6.53752 9.2599 7.00119 9.2599C7.46486 9.2599 7.90957 9.06536 8.23764 8.71902L13.0027 3.68235C13.0569 3.62457 13.1214 3.57871 13.1925 3.54741C13.2635 3.51611 13.3398 3.5 13.4168 3.5C13.4937 3.5 13.57 3.51611 13.6411 3.54741C13.7121 3.57871 13.7766 3.62457 13.8309 3.68235C13.8849 3.73996 13.9277 3.80827 13.9567 3.88338C13.9857 3.9585 14.0004 4.03892 14 4.12006Z" fill="#2C2C2C"/>
</svg>
