<svg width="9" height="18" viewBox="0 0 9 18" fill="none" xmlns="http://www.w3.org/2000/svg">
<path d="M1.12257 -0.000141144C1.22128 -0.000711441 1.31913 0.0182076 1.4105 0.0555305C1.50188 0.0928535 1.58499 0.14785 1.65507 0.217361L7.78257 6.34486C8.1318 6.6932 8.40887 7.10702 8.59792 7.56261C8.78697 8.0182 8.88428 8.50661 8.88428 8.99986C8.88428 9.49312 8.78697 9.98152 8.59792 10.4371C8.40887 10.8927 8.1318 11.3065 7.78257 11.6549L1.65507 17.7824C1.58515 17.8523 1.50213 17.9078 1.41076 17.9456C1.31939 17.9835 1.22147 18.0029 1.12257 18.0029C1.02368 18.0029 0.925754 17.9835 0.834387 17.9456C0.743021 17.9078 0.660004 17.8523 0.590075 17.7824C0.520145 17.7124 0.464674 17.6294 0.426828 17.538C0.388984 17.4467 0.369505 17.3488 0.369505 17.2499C0.369506 17.151 0.388984 17.053 0.426828 16.9617C0.464674 16.8703 0.520145 16.7873 0.590075 16.7174L6.71757 10.5899C7.13893 10.168 7.37559 9.59611 7.37559 8.99986C7.37559 8.40361 7.13893 7.83174 6.71757 7.40986L0.590075 1.28236C0.519778 1.21264 0.463982 1.12969 0.425905 1.03829C0.387828 0.946898 0.368225 0.848869 0.368225 0.749861C0.368225 0.65085 0.387828 0.552822 0.425905 0.461428C0.463982 0.370033 0.519778 0.287083 0.590075 0.217361C0.660154 0.14785 0.743265 0.0928535 0.834643 0.0555305C0.926022 0.0182076 1.02387 -0.000711441 1.12257 -0.000141144Z" fill="#2C2C2C"/>
</svg>
