<svg width="190" height="190" viewBox="0 0 190 190" fill="none" xmlns="http://www.w3.org/2000/svg">
<path d="M77.6497 79.5576H87.0809V139.529H77.6497V79.5576Z" fill="#FEC93E"/>
<path d="M88.6972 89.3508H76.033C75.5847 89.3508 75.1547 89.1727 74.8377 88.8557C74.5207 88.5387 74.3427 88.1087 74.3427 87.6604V81.9199H90.3875V87.6604C90.3875 87.8824 90.3438 88.1022 90.2589 88.3073C90.1739 88.5124 90.0494 88.6988 89.8925 88.8557C89.7355 89.0127 89.5491 89.1372 89.344 89.2221C89.139 89.3071 88.9191 89.3508 88.6972 89.3508ZM90.3875 137.303H74.3427V131.563C74.3427 131.115 74.5207 130.685 74.8377 130.368C75.1547 130.051 75.5847 129.873 76.033 129.873H88.6972C89.1455 129.873 89.5754 130.051 89.8924 130.368C90.2094 130.685 90.3875 131.115 90.3875 131.563V137.303Z" fill="#F7A738"/>
<path d="M102.92 79.5576H112.351V139.529H102.92V79.5576Z" fill="#FEC93E"/>
<path d="M113.968 89.3508H101.304C100.855 89.3508 100.425 89.1727 100.108 88.8557C99.7914 88.5387 99.6133 88.1087 99.6133 87.6604V81.9199H115.658V87.6604C115.658 87.8824 115.614 88.1022 115.529 88.3073C115.445 88.5124 115.32 88.6988 115.163 88.8557C115.006 89.0127 114.82 89.1372 114.615 89.2221C114.41 89.3071 114.19 89.3508 113.968 89.3508ZM115.658 137.303H99.6133V131.563C99.6133 131.115 99.7914 130.685 100.108 130.368C100.425 130.051 100.855 129.873 101.304 129.873H113.968C114.416 129.873 114.846 130.051 115.163 130.368C115.48 130.685 115.658 131.115 115.658 131.563V137.303Z" fill="#F7A738"/>
<path d="M128.19 79.5576H137.621V139.529H128.19V79.5576Z" fill="#FEC93E"/>
<path d="M139.239 89.3508H126.574C126.126 89.3508 125.696 89.1727 125.379 88.8557C125.062 88.5387 124.884 88.1087 124.884 87.6604V81.9199H140.929V87.6604C140.929 87.8824 140.885 88.1022 140.8 88.3073C140.715 88.5124 140.591 88.6988 140.434 88.8557C140.277 89.0127 140.091 89.1372 139.886 89.2221C139.68 89.3071 139.461 89.3508 139.239 89.3508ZM140.929 137.303H124.884V131.563C124.884 131.115 125.062 130.685 125.379 130.368C125.696 130.051 126.126 129.873 126.574 129.873H139.239C139.687 129.873 140.117 130.051 140.434 130.368C140.751 130.685 140.929 131.115 140.929 131.563V137.303Z" fill="#F7A738"/>
<path d="M52.3794 79.5576H61.8106V139.529H52.3794V79.5576Z" fill="#FEC93E"/>
<path d="M63.4265 89.3508H50.7621C50.5401 89.3508 50.3203 89.307 50.1152 89.2221C49.9102 89.1371 49.7238 89.0126 49.5669 88.8557C49.4099 88.6987 49.2854 88.5124 49.2004 88.3073C49.1155 88.1022 49.0718 87.8824 49.0718 87.6604V81.9199H65.1166V87.6604C65.1167 87.8824 65.073 88.1022 64.9881 88.3073C64.9032 88.5124 64.7787 88.6988 64.6217 88.8557C64.4648 89.0127 64.2784 89.1372 64.0734 89.2221C63.8683 89.3071 63.6485 89.3508 63.4265 89.3508ZM65.1166 137.303H49.0718V131.563C49.0718 131.115 49.2499 130.685 49.5669 130.368C49.8839 130.051 50.3138 129.873 50.7621 129.873H63.4263C63.8746 129.873 64.3045 130.051 64.6215 130.368C64.9385 130.685 65.1166 131.115 65.1166 131.563V137.303Z" fill="#F7A738"/>
<path d="M147.759 81.92H42.2423C41.8041 81.92 41.3838 81.7459 41.0739 81.436C40.7641 81.1261 40.59 80.7059 40.59 80.2676V73.209C40.59 72.992 40.6327 72.7771 40.7157 72.5767C40.7988 72.3762 40.9205 72.194 41.0739 72.0406C41.2274 71.8872 41.4095 71.7655 41.61 71.6824C41.8105 71.5994 42.0253 71.5566 42.2423 71.5566H147.758C147.975 71.5566 148.19 71.5994 148.391 71.6824C148.591 71.7655 148.773 71.8872 148.927 72.0406C149.08 72.194 149.202 72.3762 149.285 72.5767C149.368 72.7771 149.411 72.992 149.411 73.209V80.2676C149.411 80.4846 149.368 80.6995 149.285 80.8999C149.202 81.1004 149.08 81.2826 148.927 81.436C148.774 81.5894 148.591 81.7111 148.391 81.7942C148.191 81.8772 147.976 81.92 147.759 81.92Z" fill="#FEC93E"/>
<path d="M147.759 71.5566H136.353V81.9202H147.759C148.197 81.9202 148.617 81.7461 148.927 81.4362C149.237 81.1264 149.411 80.7061 149.411 80.2679V73.2092C149.411 72.9922 149.368 72.7773 149.285 72.5768C149.202 72.3763 149.081 72.1941 148.927 72.0407C148.774 71.8872 148.592 71.7655 148.391 71.6824C148.191 71.5994 147.976 71.5566 147.759 71.5566Z" fill="#EFB635"/>
<path d="M150.44 144.492H39.5612V139.831C39.5612 138.435 40.6925 137.304 42.0882 137.304H147.913C149.308 137.304 150.44 138.435 150.44 139.831V144.492H150.44Z" fill="#FEC93E"/>
<path d="M147.913 137.304H137.381V144.492H150.439V139.831C150.44 138.435 149.308 137.304 147.913 137.304Z" fill="#EFB635"/>
<path d="M154.132 151.682H35.8686C35.6384 151.682 35.4176 151.59 35.2548 151.428C35.092 151.265 35.0005 151.044 35.0005 150.814V147.02C35.0005 145.624 36.1318 144.493 37.5275 144.493H152.473C153.869 144.493 155 145.624 155 147.02V150.814C155 151.044 154.909 151.265 154.746 151.428C154.583 151.59 154.362 151.682 154.132 151.682Z" fill="#F7A738"/>
<path d="M152.473 144.493H142.002V151.682H154.132C154.246 151.682 154.359 151.659 154.464 151.616C154.57 151.572 154.665 151.508 154.746 151.428C154.826 151.347 154.89 151.251 154.934 151.146C154.978 151.04 155 150.928 155 150.814V147.02C155 145.624 153.869 144.493 152.473 144.493Z" fill="#E8932E"/>
<path d="M95.0636 38.5242L35.6752 69.6772C35.5137 69.7619 35.3784 69.8892 35.284 70.0453C35.1896 70.2014 35.1397 70.3803 35.1396 70.5627V73.7528C35.1396 74.0179 35.245 74.2723 35.4325 74.4598C35.62 74.6473 35.8743 74.7526 36.1395 74.7526H153.861C154.126 74.7526 154.381 74.6473 154.568 74.4598C154.756 74.2723 154.861 74.0179 154.861 73.7528V70.554C154.861 70.3738 154.812 70.1969 154.72 70.042C154.628 69.8872 154.495 69.7602 154.337 69.6744L96.7546 38.5348C96.4952 38.3945 96.2053 38.3202 95.9104 38.3184C95.6155 38.3166 95.3247 38.3872 95.0636 38.5242Z" fill="#F7A738"/>
<path d="M154.337 69.6745L96.7547 38.5349C96.4954 38.3946 96.2055 38.3203 95.9106 38.3184C95.6157 38.3165 95.3249 38.3872 95.0637 38.5241L84.7667 43.9255L141.771 74.7527H153.861C153.993 74.7527 154.123 74.7269 154.244 74.6766C154.365 74.6263 154.476 74.5527 154.568 74.4598C154.661 74.3669 154.735 74.2567 154.785 74.1354C154.835 74.014 154.861 73.884 154.861 73.7527V70.5539C154.861 70.3737 154.812 70.1968 154.72 70.042C154.628 69.8872 154.495 69.7603 154.337 69.6745Z" fill="#E8932E"/>
</svg>
