<svg width="56" height="40" viewBox="0 0 56 40" fill="none" xmlns="http://www.w3.org/2000/svg">
<rect width="56" height="40" rx="8" fill="url(#paint0_linear_0_4)"/>
<path d="M42.8957 33.9167H41.5851L42.4042 29.0863H43.715L42.8957 33.9167ZM40.4825 29.0863L39.2329 32.4087L39.0851 31.6932L39.0852 31.6935L38.6442 29.5212C38.6442 29.5212 38.5909 29.0863 38.0225 29.0863H35.9567L35.9325 29.1681C35.9325 29.1681 36.5642 29.2942 37.3035 29.7202L38.4422 33.9168H39.8078L41.8931 29.0863H40.4825ZM50.7915 33.9167H51.995L50.9457 29.0862H49.8921C49.4056 29.0862 49.2871 29.4462 49.2871 29.4462L47.3323 33.9167H48.6986L48.9718 33.1992H50.638L50.7915 33.9167ZM49.3493 32.208L50.038 30.4004L50.4254 32.208H49.3493ZM47.4348 30.2479L47.6219 29.2106C47.6219 29.2106 47.0447 29 46.443 29C45.7926 29 44.248 29.2728 44.248 30.5991C44.248 31.847 46.0608 31.8625 46.0608 32.518C46.0608 33.1735 44.4348 33.056 43.8982 32.6427L43.7033 33.7272C43.7033 33.7272 44.2886 34 45.1827 34C46.0771 34 47.4265 33.5557 47.4265 32.3463C47.4265 31.0903 45.5973 30.9734 45.5973 30.4274C45.5975 29.8812 46.8739 29.9514 47.4348 30.2479Z" fill="white"/>
<defs>
<linearGradient id="paint0_linear_0_4" x1="-7.79182e-07" y1="57" x2="51" y2="-22" gradientUnits="userSpaceOnUse">
<stop stop-color="#CF9931"/>
<stop offset="1" stop-color="#E3D0A9"/>
</linearGradient>
</defs>
</svg>
