<svg width="20" height="20" viewBox="0 0 20 20" fill="none" xmlns="http://www.w3.org/2000/svg">
<g clip-path="url(#clip0_532_3181)">
<path fill-rule="evenodd" clip-rule="evenodd" d="M20 14.0407C20 13.6716 19.7005 13.3721 19.3314 13.3721H1.50198C1.13291 13.3721 0.833374 13.6716 0.833374 14.0407V17.6066C0.833374 18.0202 0.997405 18.4169 1.2907 18.7093C1.5831 19.0026 1.97981 19.1666 2.39345 19.1666H18.44C18.8536 19.1666 19.2503 19.0026 19.5427 18.7093C19.836 18.4169 20 18.0202 20 17.6066C20 16.3059 20 14.0407 20 14.0407ZM18.6628 14.7093V17.6066C18.6628 17.6654 18.6397 17.7225 18.5978 17.7644C18.5559 17.8063 18.4988 17.8294 18.44 17.8294H2.39345C2.33461 17.8294 2.27756 17.8063 2.23566 17.7644C2.19376 17.7225 2.17058 17.6654 2.17058 17.6066V14.7093H18.6628Z" fill="white"/>
<path fill-rule="evenodd" clip-rule="evenodd" d="M19.1086 1.56008C19.1086 1.14643 18.9445 0.749729 18.6512 0.457326C18.3588 0.164031 17.9621 0 17.5485 0C16.0045 0 12.8522 0 11.3082 0C10.8945 0 10.4978 0.164031 10.2054 0.457326C9.91214 0.749729 9.74811 1.14643 9.74811 1.56008V4.2345C9.74811 4.64814 9.91214 5.04484 10.2054 5.33725C10.4978 5.63054 10.8945 5.79457 11.3082 5.79457H17.5485C17.9621 5.79457 18.3588 5.63054 18.6512 5.33725C18.9445 5.04484 19.1086 4.64814 19.1086 4.2345V1.56008ZM17.7714 1.56008V4.2345C17.7714 4.29333 17.7482 4.35039 17.7063 4.39229C17.6644 4.43419 17.6073 4.45736 17.5485 4.45736H11.3082C11.2493 4.45736 11.1923 4.43419 11.1504 4.39229C11.1085 4.35039 11.0853 4.29333 11.0853 4.2345V1.56008C11.0853 1.50124 11.1085 1.44419 11.1504 1.40229C11.1923 1.36039 11.2493 1.33721 11.3082 1.33721H17.5485C17.6073 1.33721 17.6644 1.36039 17.7063 1.40229C17.7482 1.44419 17.7714 1.50124 17.7714 1.56008Z" fill="white"/>
<path fill-rule="evenodd" clip-rule="evenodd" d="M19.2057 8.04067C19.1023 7.26509 18.4417 6.68652 17.659 6.68652H3.17436C2.39165 6.68652 1.73107 7.26509 1.62765 8.04067C1.3932 9.80044 0.839592 13.9529 0.839592 13.9529C0.81374 14.1437 0.871685 14.3363 0.999166 14.4816C1.12576 14.6269 1.3094 14.7098 1.50196 14.7098H19.3314C19.524 14.7098 19.7076 14.6269 19.8342 14.4816C19.9617 14.3363 20.0196 14.1437 19.9938 13.9529C19.9938 13.9529 19.4402 9.80044 19.2057 8.04067ZM17.8801 8.21718L18.5674 13.3726H2.26595L2.95327 8.21718C2.96754 8.10664 3.06203 8.02373 3.17347 8.02373H17.659C17.7713 8.02373 17.8658 8.10664 17.8801 8.21718Z" fill="white"/>
<path fill-rule="evenodd" clip-rule="evenodd" d="M14.874 10.2518H15.7655C16.1346 10.2518 16.4341 9.95223 16.4341 9.58316C16.4341 9.21409 16.1346 8.91455 15.7655 8.91455H14.874C14.505 8.91455 14.2054 9.21409 14.2054 9.58316C14.2054 9.95223 14.505 10.2518 14.874 10.2518Z" fill="white"/>
<path fill-rule="evenodd" clip-rule="evenodd" d="M11.7539 10.2518H12.6454C13.0145 10.2518 13.314 9.95223 13.314 9.58316C13.314 9.21409 13.0145 8.91455 12.6454 8.91455H11.7539C11.3849 8.91455 11.0853 9.21409 11.0853 9.58316C11.0853 9.95223 11.3849 10.2518 11.7539 10.2518Z" fill="white"/>
<path fill-rule="evenodd" clip-rule="evenodd" d="M14.874 12.4808H15.7655C16.1346 12.4808 16.4341 12.1812 16.4341 11.8122C16.4341 11.4431 16.1346 11.1436 15.7655 11.1436H14.874C14.505 11.1436 14.2054 11.4431 14.2054 11.8122C14.2054 12.1812 14.505 12.4808 14.874 12.4808Z" fill="white"/>
<path fill-rule="evenodd" clip-rule="evenodd" d="M11.7539 12.4808H12.6454C13.0145 12.4808 13.314 12.1812 13.314 11.8122C13.314 11.4431 13.0145 11.1436 12.6454 11.1436H11.7539C11.3849 11.1436 11.0853 11.4431 11.0853 11.8122C11.0853 12.1812 11.3849 12.4808 11.7539 12.4808Z" fill="white"/>
<path fill-rule="evenodd" clip-rule="evenodd" d="M15.0969 7.35481V5.12612C15.0969 4.75705 14.7974 4.45752 14.4283 4.45752C14.0593 4.45752 13.7597 4.75705 13.7597 5.12612V7.35481C13.7597 7.72388 14.0593 8.02341 14.4283 8.02341C14.7974 8.02341 15.0969 7.72388 15.0969 7.35481Z" fill="white"/>
<path fill-rule="evenodd" clip-rule="evenodd" d="M4.62213 11.1434H8.18802C8.55709 11.1434 8.85662 10.8438 8.85662 10.4748C8.85662 10.1057 8.55709 9.80615 8.18802 9.80615H4.62213C4.25306 9.80615 3.95352 10.1057 3.95352 10.4748C3.95352 10.8438 4.25306 11.1434 4.62213 11.1434Z" fill="white"/>
</g>
<defs>
<clipPath id="clip0_532_3181">
<rect width="20" height="20" fill="white"/>
</clipPath>
</defs>
</svg>
