<svg width="114" height="80" viewBox="0 0 114 80" fill="none" xmlns="http://www.w3.org/2000/svg">
<path opacity="0.15" d="M37.2478 65.5354L67.8369 82.9461L102.739 62.9242L81.5521 50.8496" fill="url(#paint0_linear_449_13339)"/>
<path d="M62.8264 45.1533C54.0668 45.1533 46.9664 49.2165 46.9664 54.2283V57.8583C46.9664 62.8677 54.0668 66.9345 62.8264 66.9345C71.586 66.9345 78.6864 64.0801 78.6864 59.0695V54.2283C78.6864 49.2165 71.586 45.1533 62.8264 45.1533Z" fill="#F7C90B"/>
<g opacity="0.3">
<path d="M78.6863 54.2279C78.6863 54.5788 78.6497 54.9176 78.5765 55.2564L59.4103 58.2318L69.7315 52.2798L66.2667 50.2954L75.5875 48.8555C77.5395 50.3559 78.6863 52.2193 78.6863 54.2279Z" fill="white"/>
</g>
<g opacity="0.2">
<path d="M55.9455 56.2489L59.4103 58.2333L50.1371 59.6635C48.1485 58.1498 46.9651 56.2743 46.9651 54.2294C46.9651 53.9027 46.9895 53.576 47.0627 53.2614L66.2655 50.2969L55.9455 56.2489Z" fill="black"/>
</g>
<path opacity="0.35" d="M66.2668 50.2959V54.2768L59.4104 58.2335L55.9456 56.2491L66.2668 50.2959Z" fill="black"/>
<path opacity="0.2" d="M69.7315 52.2803L66.2667 54.2768V50.2959L69.7315 52.2803Z" fill="#231F20"/>
<path opacity="0.15" d="M78.6863 54.2285V59.0697C78.6863 64.0803 71.5859 66.9347 62.8263 66.9347C57.6291 66.9347 53.0175 65.5045 50.1383 63.2926C48.1497 61.7801 46.9663 59.9034 46.9663 57.8585V54.2285C46.9663 56.2734 48.1497 58.1489 50.1383 59.6626C53.0175 61.8745 57.6303 63.3047 62.8263 63.3047C71.5859 63.3047 78.6863 59.2379 78.6863 54.2285Z" fill="black"/>
<path opacity="0.15" d="M50.1383 59.6626V63.2926C48.1497 61.7801 46.9663 59.9034 46.9663 57.8585V54.2285C46.9663 56.2734 48.1497 58.1489 50.1383 59.6626Z" fill="black"/>
<path d="M67.7064 37.9658C58.9468 37.9658 51.8464 42.029 51.8464 47.0408V50.6708C51.8464 55.6802 58.9468 59.7458 67.7064 59.7458C76.466 59.7458 83.5664 56.8914 83.5664 51.8808V47.0408C83.5664 42.029 76.466 37.9658 67.7064 37.9658Z" fill="#F7C90B"/>
<path opacity="0.15" d="M67.7064 37.9658C58.9468 37.9658 51.8464 42.029 51.8464 47.0408V50.6708C51.8464 55.6802 58.9468 59.7458 67.7064 59.7458C76.466 59.7458 83.5664 56.8914 83.5664 51.8808V47.0408C83.5664 42.029 76.466 37.9658 67.7064 37.9658Z" fill="#C7441C"/>
<path opacity="0.1" d="M67.7064 37.9658C58.9468 37.9658 51.8464 42.029 51.8464 47.0408V50.6708C51.8464 55.6802 58.9468 59.7458 67.7064 59.7458C76.466 59.7458 83.5664 56.8914 83.5664 51.8808V47.0408C83.5664 42.029 76.466 37.9658 67.7064 37.9658Z" fill="black"/>
<g opacity="0.3">
<path d="M83.5663 47.0404C83.5663 47.3913 83.5297 47.7301 83.4565 48.0689L64.2903 51.0455L74.6115 45.0923L71.1467 43.1079L80.4675 41.668C82.4195 43.1684 83.5663 45.0318 83.5663 47.0404Z" fill="white"/>
</g>
<g opacity="0.2">
<path d="M60.8255 49.0616L64.2903 51.046L55.0171 52.475C53.0285 50.9625 51.8451 49.0858 51.8451 47.0409C51.8451 46.7142 51.8695 46.3875 51.9427 46.0729L71.1455 43.1084L60.8255 49.0616Z" fill="black"/>
</g>
<path opacity="0.35" d="M71.1468 43.1084V47.0893L64.2904 51.046L60.8256 49.0616L71.1468 43.1084Z" fill="black"/>
<path opacity="0.2" d="M74.6115 45.0928L71.1467 47.0893V43.1084L74.6115 45.0928Z" fill="#231F20"/>
<path opacity="0.15" d="M83.5663 47.041V51.881C83.5663 56.8916 76.4659 59.746 67.7063 59.746C62.5091 59.746 57.8975 58.3182 55.0183 56.1051C53.0297 54.5926 51.8463 52.7159 51.8463 50.671V47.041C51.8463 49.0859 53.0297 50.9614 55.0183 52.4751C57.8975 54.6882 62.5103 56.1172 67.7063 56.1172C76.4659 56.116 83.5663 52.0504 83.5663 47.041Z" fill="black"/>
<path opacity="0.15" d="M55.0183 52.4742V56.1041C53.0297 54.5917 51.8463 52.7149 51.8463 50.67V47.04C51.8463 49.0861 53.0297 50.9617 55.0183 52.4742Z" fill="black"/>
<path d="M62.6715 29.5664C53.9119 29.5664 46.8115 33.6296 46.8115 38.6414V42.2714C46.8115 47.2808 53.9119 51.3464 62.6715 51.3464C71.4311 51.3464 78.5315 48.492 78.5315 43.4814V38.6414C78.5315 33.6296 71.4311 29.5664 62.6715 29.5664Z" fill="#F7C90B"/>
<path opacity="0.2" d="M62.6715 29.5664C53.9119 29.5664 46.8115 33.6296 46.8115 38.6414V42.2714C46.8115 47.2808 53.9119 51.3464 62.6715 51.3464C71.4311 51.3464 78.5315 48.492 78.5315 43.4814V38.6414C78.5315 33.6296 71.4311 29.5664 62.6715 29.5664Z" fill="white"/>
<path opacity="0.2" d="M62.6715 29.5664C53.9119 29.5664 46.8115 33.6296 46.8115 38.6414V42.2714C46.8115 47.2808 53.9119 51.3464 62.6715 51.3464C71.4311 51.3464 78.5315 48.492 78.5315 43.4814V38.6414C78.5315 33.6296 71.4311 29.5664 62.6715 29.5664Z" fill="black"/>
<g opacity="0.3">
<path d="M78.5314 38.641C78.5314 38.9919 78.4948 39.3307 78.4216 39.6695L59.2554 42.6461L69.5766 36.6929L66.1118 34.7085L75.4326 33.2686C77.3846 34.769 78.5314 36.6324 78.5314 38.641Z" fill="white"/>
</g>
<g opacity="0.2">
<path d="M55.7906 40.6622L59.2554 42.6466L49.9822 44.0756C47.9936 42.5631 46.8102 40.6864 46.8102 38.6415C46.8102 38.3148 46.8346 37.9881 46.9078 37.6735L66.1106 34.709L55.7906 40.6622Z" fill="black"/>
</g>
<path opacity="0.35" d="M66.1118 34.709V38.6899L59.2554 42.6466L55.7906 40.6622L66.1118 34.709Z" fill="black"/>
<path opacity="0.2" d="M69.5766 36.6934L66.1118 38.6899V34.709L69.5766 36.6934Z" fill="#231F20"/>
<path opacity="0.15" d="M78.5314 38.6418V43.4818C78.5314 48.4924 71.431 51.3468 62.6714 51.3468C57.4742 51.3468 52.8626 49.9178 49.9834 47.7047C47.9948 46.1922 46.8114 44.3155 46.8114 42.2706V38.6406C46.8114 40.6855 47.9948 42.561 49.9834 44.0747C52.8626 46.2878 57.4754 47.7168 62.6714 47.7168C71.431 47.7168 78.5314 43.6512 78.5314 38.6418Z" fill="black"/>
<path opacity="0.15" d="M49.9834 44.0757V47.7057C47.9948 46.1932 46.8114 44.3165 46.8114 42.2716V38.6416C46.8114 40.6865 47.9948 42.562 49.9834 44.0757Z" fill="black"/>
<path d="M67.9992 22.4688C59.2396 22.4688 52.1392 26.5319 52.1392 31.5437V35.1737C52.1392 40.1831 59.2396 44.2487 67.9992 44.2487C76.7588 44.2487 83.8592 41.3944 83.8592 36.3837V31.5437C83.8592 26.5319 76.7588 22.4688 67.9992 22.4688Z" fill="#F7C90B"/>
<g opacity="0.3">
<path d="M83.8591 31.5433C83.8591 31.8942 83.8225 32.233 83.7493 32.5718L64.5831 35.5484L74.9043 29.5952L71.4395 27.6108L80.7603 26.1709C82.7123 27.6701 83.8591 29.5347 83.8591 31.5433Z" fill="white"/>
</g>
<g opacity="0.2">
<path d="M61.1196 33.5645L64.5844 35.5489L55.3112 36.9779C53.3226 35.4654 52.1392 33.5887 52.1392 31.5438C52.1392 31.2171 52.1636 30.8904 52.2368 30.5758L71.4396 27.6113L61.1196 33.5645Z" fill="black"/>
</g>
<path opacity="0.35" d="M71.4408 27.6113V31.5922L64.5844 35.5489L61.1196 33.5645L71.4408 27.6113Z" fill="black"/>
<path opacity="0.2" d="M74.9044 29.5957L71.4408 31.5922V27.6113L74.9044 29.5957Z" fill="#231F20"/>
<path opacity="0.15" d="M83.8592 31.5442V36.3842C83.8592 41.3948 76.7588 44.2492 67.9992 44.2492C62.802 44.2492 58.1904 42.8202 55.3112 40.6071C53.3226 39.0946 52.1392 37.2179 52.1392 35.173V31.543C52.1392 33.5879 53.3226 35.4634 55.3112 36.9771C58.1904 39.1902 62.8032 40.6192 67.9992 40.6192C76.7588 40.6192 83.8592 36.5536 83.8592 31.5442Z" fill="black"/>
<path opacity="0.15" d="M55.3112 36.9771V40.6071C53.3226 39.0946 52.1392 37.2179 52.1392 35.173V31.543C52.1392 33.5891 53.3226 35.4646 55.3112 36.9771Z" fill="black"/>
<path d="M72.8792 16.3789C64.1196 16.3789 57.0192 20.4421 57.0192 25.4539V29.0839C57.0192 34.0933 64.1196 38.1589 72.8792 38.1589C81.6388 38.1589 88.7392 35.3045 88.7392 30.2939V25.4539C88.7392 20.4421 81.6388 16.3789 72.8792 16.3789Z" fill="#F7C90B"/>
<path opacity="0.15" d="M72.8792 16.3789C64.1196 16.3789 57.0192 20.4421 57.0192 25.4539V29.0839C57.0192 34.0933 64.1196 38.1589 72.8792 38.1589C81.6388 38.1589 88.7392 35.3045 88.7392 30.2939V25.4539C88.7392 20.4421 81.6388 16.3789 72.8792 16.3789Z" fill="#C7441C"/>
<path opacity="0.1" d="M72.8792 16.3789C64.1196 16.3789 57.0192 20.4421 57.0192 25.4539V29.0839C57.0192 34.0933 64.1196 38.1589 72.8792 38.1589C81.6388 38.1589 88.7392 35.3045 88.7392 30.2939V25.4539C88.7392 20.4421 81.6388 16.3789 72.8792 16.3789Z" fill="black"/>
<g opacity="0.3">
<path d="M88.7391 25.4535C88.7391 25.8044 88.7025 26.1432 88.6293 26.482L69.4631 29.4586L79.7843 23.5054L76.3195 21.521L85.6403 20.0811C87.5923 21.5815 88.7391 23.4449 88.7391 25.4535Z" fill="white"/>
</g>
<g opacity="0.2">
<path d="M65.9996 27.4747L69.4644 29.4591L60.1912 30.8881C58.2026 29.3756 57.0192 27.4989 57.0192 25.454C57.0192 25.1273 57.0436 24.8006 57.1168 24.486L76.3196 21.5215L65.9996 27.4747Z" fill="black"/>
</g>
<path opacity="0.35" d="M76.3208 21.5215V25.5024L69.4644 29.4591L65.9996 27.4747L76.3208 21.5215Z" fill="black"/>
<path opacity="0.2" d="M79.7844 23.5059L76.3208 25.5024V21.5215L79.7844 23.5059Z" fill="#231F20"/>
<path opacity="0.15" d="M88.7392 25.4543V30.2943C88.7392 35.3049 81.6388 38.1593 72.8792 38.1593C67.682 38.1593 63.0704 36.7303 60.1912 34.5172C58.2026 33.0047 57.0192 31.128 57.0192 29.0831V25.4531C57.0192 27.498 58.2026 29.3735 60.1912 30.8872C63.0704 33.1003 67.6832 34.5293 72.8792 34.5293C81.6388 34.5293 88.7392 30.4637 88.7392 25.4543Z" fill="black"/>
<path opacity="0.15" d="M60.1912 30.8882V34.5182C58.2026 33.0057 57.0192 31.129 57.0192 29.0841V25.4541C57.0192 27.499 58.2026 29.3745 60.1912 30.8882Z" fill="black"/>
<path d="M69.0485 7.68848C60.2889 7.68848 53.1885 11.7517 53.1885 16.7635V20.3935C53.1885 25.4029 60.2889 29.4685 69.0485 29.4685C77.8081 29.4685 84.9085 26.6141 84.9085 21.6035V16.7635C84.9085 11.7517 77.8069 7.68848 69.0485 7.68848Z" fill="#F7C90B"/>
<g opacity="0.3">
<path d="M84.9083 16.763C84.9083 17.1139 84.8717 17.4527 84.7985 17.7915L65.6323 20.7681L75.9535 14.8149L72.4887 12.8305L81.8095 11.3906C83.7603 12.891 84.9083 14.7544 84.9083 16.763Z" fill="white"/>
</g>
<g opacity="0.2">
<path d="M62.1676 18.7843L65.6324 20.7687L56.3591 22.1977C54.3705 20.6852 53.1871 18.8085 53.1871 16.7636C53.1871 16.4369 53.2115 16.1102 53.2847 15.7956L72.4875 12.8311L62.1676 18.7843Z" fill="black"/>
</g>
<path opacity="0.35" d="M72.4888 12.8311V16.812L65.6324 20.7687L62.1676 18.7843L72.4888 12.8311Z" fill="black"/>
<path opacity="0.2" d="M75.9536 14.8155L72.4888 16.812V12.8311L75.9536 14.8155Z" fill="#231F20"/>
<path opacity="0.15" d="M84.9084 16.7639V21.6039C84.9084 26.6145 77.808 29.4689 69.0484 29.4689C63.8512 29.4689 59.2396 28.0399 56.3604 25.8268C54.3718 24.3143 53.1884 22.4376 53.1884 20.3927V16.7627C53.1884 18.8076 54.3718 20.6831 56.3604 22.1968C59.2396 24.4099 63.8524 25.8389 69.0484 25.8389C77.8067 25.8401 84.9084 21.7733 84.9084 16.7639Z" fill="black"/>
<path opacity="0.15" d="M56.3591 22.1978V25.8278C54.3705 24.3153 53.1871 22.4386 53.1871 20.3937V16.7637C53.1884 18.8086 54.3705 20.6853 56.3591 22.1978Z" fill="black"/>
<path d="M58.9284 58.7048C56.1712 65.1662 50.4738 68.6873 45.0802 67.7919L41.4824 67.199C40.2978 66.9933 39.1266 66.594 38.0042 65.9539C37.4308 65.6163 32.7582 63.1697 31.5016 55.5612C30.9404 52.2446 31.404 48.6037 32.8448 45.2266C35.674 38.6079 41.6154 35.0747 47.1432 36.2363L50.2664 36.7566C51.462 36.9502 52.6454 37.3616 53.7813 38.0029C53.9752 38.1118 54.5987 38.4506 55.4039 39.1282C57.0252 40.5076 59.3933 43.2906 60.2704 48.3859C60.8304 51.6989 60.3668 55.3434 58.9284 58.7048Z" fill="#F7C90B"/>
<path opacity="0.15" d="M58.9248 58.7076C56.1676 65.169 50.4702 68.6901 45.0778 67.7947L41.4788 67.2018C46.859 68.0972 52.5686 64.5761 55.3258 58.1147C56.7666 54.7497 57.2326 51.11 56.669 47.7922C55.3611 40.1002 50.7398 37.7504 50.1664 37.4104C49.044 36.7691 47.8594 36.3577 46.665 36.1641L50.264 36.757C51.4584 36.9506 52.643 37.362 53.7776 38.0033C54.351 38.3421 58.9711 40.7802 60.268 48.3851C60.8328 51.7029 60.3644 55.3438 58.9248 58.7076Z" fill="black"/>
<path opacity="0.2" d="M39.5426 57.2658L43.0074 59.2477L36.3706 64.8162C34.7236 63.4356 32.3446 60.6526 31.5028 55.5597C31.5028 55.5476 31.5028 55.5476 31.5028 55.5343L45.1668 44.0889L39.5426 57.2658Z" fill="black" fill-opacity="0.2"/>
<path opacity="0.35" d="M39.5414 57.2706L45.1692 44.0938L48.6353 46.0781L43.0074 59.2551L39.5414 57.2706Z" fill="black" fill-opacity="0.35"/>
<path opacity="0.3" d="M56.6959 47.8038V47.7917C55.9151 42.7702 53.4751 39.9509 51.8037 38.5461C51.7903 38.534 51.7781 38.5219 51.7671 38.5098L55.4027 39.1269C57.0241 40.5063 59.3921 43.2893 60.2693 48.3846L56.6959 47.8038Z" fill="white"/>
<path opacity="0.3" d="M56.6958 47.7923V47.8043L43.0074 59.2497L48.6304 46.074L45.1656 44.0896L51.8024 38.5479C53.475 39.9502 55.915 42.7695 56.6958 47.7923Z" fill="white"/>
<defs>
<linearGradient id="paint0_linear_449_13339" x1="78.2837" y1="78.1835" x2="59.4315" y2="45.9275" gradientUnits="userSpaceOnUse">
<stop stop-opacity="0"/>
<stop offset="0.0705" stop-opacity="0.0705"/>
<stop offset="1"/>
</linearGradient>
</defs>
</svg>
