<svg width="124" height="80" viewBox="0 0 124 80" fill="none" xmlns="http://www.w3.org/2000/svg">
<path opacity="0.15" d="M73.125 71.7715L96.7706 91.3585L123.75 68.8339L107.373 55.25" fill="url(#paint0_linear_447_13069)"/>
<path d="M110.807 34.656L110.784 40.9787L110.773 40.9892L110.74 59.0271C110.728 59.7689 110.474 60.3013 110.041 60.5446C103.542 64.3214 97.0415 68.1087 90.5305 71.8842C90.5738 71.8608 90.596 71.8293 90.6299 71.7953C90.197 72.1276 89.5664 72.1276 88.8562 71.7181L48.0068 48.1321C46.7116 47.3903 45.6481 45.5511 45.6586 44.057L45.7031 23.1713L45.7136 23.183L45.7265 19.6835C45.7265 18.9418 45.9921 18.4211 46.4238 18.1777C52.9255 14.401 59.4237 10.6242 65.9242 6.8381C66.3571 6.59474 66.955 6.6275 67.6078 7.00424L108.448 30.5914C109.755 31.3437 110.807 33.1608 110.807 34.656Z" fill="#5D6374"/>
<path opacity="0.25" d="M91.2769 52.3174L45.7077 26.0088L45.7007 28.715L91.2687 55.0236L110.782 43.6852L110.788 40.9789L91.2769 52.3174Z" fill="black"/>
<path opacity="0.25" d="M110.785 40.9785V43.6812L110.74 59.0269C110.728 59.7687 110.474 60.3011 110.042 60.5444C103.542 64.3212 97.0417 68.1085 90.5306 71.8841C90.9612 71.6407 91.2163 71.1083 91.228 70.3666L91.2724 55.0197V52.3182L110.785 40.9785Z" fill="black"/>
<path opacity="0.15" d="M108.453 30.5898L88.9406 41.9295C90.2486 42.6841 91.2993 44.5035 91.2946 45.9987L91.277 52.3191L110.789 40.9806L110.807 34.6591C110.81 33.1627 109.76 31.3445 108.453 30.5898Z" fill="black"/>
<path opacity="0.05" d="M67.6067 7.00671C66.9503 6.62763 66.3548 6.59253 65.9243 6.84174C59.4202 10.6208 52.9174 14.3999 46.4133 18.1802C46.8427 17.931 47.4382 17.9661 48.0958 18.3452L88.9405 41.9265L108.454 30.5881L67.6067 7.00671Z" fill="black"/>
<path d="M69.2599 46.8421L69.2446 52.2604L67.6675 51.3501L67.6839 45.9307L69.2599 46.8421Z" fill="#C2C0BD"/>
<path d="M68.4794 44.5861C70.6486 45.8391 72.3989 48.8671 72.3907 51.3615C72.3849 53.856 70.6252 54.8657 68.4548 53.6138C66.2857 52.3607 64.5295 49.3199 64.5365 46.8266C64.5435 44.331 66.3102 43.3318 68.4794 44.5861ZM69.2446 52.2613L69.261 46.843L67.6838 45.9327L67.6674 51.351L69.2446 52.2613Z" fill="#DEDCD9"/>
<path opacity="0.2" d="M67.6675 51.3501L69.2493 50.4305L69.2599 46.8421L67.6839 45.9307L67.6675 51.3501Z" fill="black"/>
<path d="M85.8317 58.2854L85.7732 78.1403L84.2171 79.0529H84.2054L55.9265 62.7197L55.985 42.8765L57.5528 41.9639L85.8317 58.2854Z" fill="#80B34F"/>
<path opacity="0.15" d="M57.548 41.9648L55.9884 42.8716L84.2685 59.1931L84.2135 79.0503L85.7743 78.1424L85.8304 58.2875L57.548 41.9648Z" fill="black" fill-opacity="0.15"/>
<path opacity="0.4" d="M74.8162 63.6806C74.8057 67.1906 72.6283 68.7478 70.0824 67.2783C67.5364 65.8088 65.3743 61.7454 65.3848 58.2366C65.3942 54.7277 67.5715 53.1705 70.1175 54.64C72.6634 56.1095 74.8255 60.1717 74.8162 63.6806ZM57.5072 61.825L82.647 76.34L82.6938 60.091L57.5517 45.583L57.5072 61.825ZM81.0886 71.8179C80.3269 71.378 79.5102 71.8425 79.5079 72.72L70.0824 67.2783L60.658 61.8378C60.6592 60.9603 59.8495 59.5563 59.0855 59.1164L59.1101 50.0945C59.8729 50.5356 60.4427 49.9366 60.4451 49.0591L70.1175 54.6411L79.543 60.0781C79.5406 60.9556 80.3503 62.3514 81.1143 62.7925L81.0886 71.8179Z" fill="black"/>
<path d="M70.1057 18.6457L73.2284 16.8311L71.856 18.7487L68.7333 20.5622L70.1057 18.6457Z" fill="#DEDCD9"/>
<path opacity="0.2" d="M70.1057 18.6457L73.2284 16.8311L71.856 18.7487L68.7333 20.5622L70.1057 18.6457Z" fill="black"/>
<path d="M89.0246 28.6652L85.9019 30.481L82.3802 28.444L81.0171 24.9446L70.1104 18.643L68.7368 20.5594L65.2046 18.5224C65.2935 18.4008 67.0321 15.9637 67.74 14.9668C67.9611 14.6568 68.2045 14.4134 68.4829 14.259C68.5274 14.225 68.5707 14.2028 68.6268 14.1806L71.6045 12.442C72.1918 12.0991 72.9558 12.1436 74.0299 12.7637L83.377 18.1679C84.9366 19.0759 85.8247 20.3933 86.522 22.1986C87.2193 24.0027 88.9369 28.4323 89.0246 28.6652Z" fill="#DEDCD9"/>
<path opacity="0.1" d="M83.3781 18.167L80.2542 19.9828L70.9082 14.5786C69.8342 13.9585 69.0807 13.9023 68.484 14.258L71.6056 12.441C72.1929 12.0982 72.9569 12.1426 74.031 12.7627L83.3781 18.167Z" fill="black"/>
<path opacity="0.15" d="M80.2507 19.9776L83.3735 18.1641C84.9424 19.0696 85.8246 20.3929 86.5184 22.1935C87.2228 23.9989 88.938 28.4308 89.0292 28.6636L85.9065 30.4771C85.8176 30.2443 84.1012 25.8135 83.398 24.007C82.7019 22.2076 81.8209 20.8843 80.2507 19.9776Z" fill="black"/>
<defs>
<linearGradient id="paint0_linear_447_13069" x1="104.846" y1="86.0006" x2="80.8196" y2="57.7537" gradientUnits="userSpaceOnUse">
<stop stop-opacity="0"/>
<stop offset="0.0705" stop-opacity="0.0705"/>
<stop offset="1"/>
</linearGradient>
</defs>
</svg>
