<svg width="37" height="36" viewBox="0 0 37 36" fill="none" xmlns="http://www.w3.org/2000/svg">
<path d="M14.2713 2.01437C16.5786 0.661876 19.4214 0.661876 21.7287 2.01437L29.7713 6.72868C32.0786 8.08118 33.5 10.5807 33.5 13.2857V22.7143C33.5 25.4193 32.0786 27.9188 29.7713 29.2713L21.7287 33.9856C19.4214 35.3381 16.5786 35.3381 14.2713 33.9856L6.22872 29.2713C3.92138 27.9188 2.5 25.4193 2.5 22.7143V13.2857C2.5 10.5807 3.92138 8.08118 6.22872 6.72868L14.2713 2.01437Z" fill="#DE7047"/>
<path d="M20.5 10V14H24.5L20.5 10Z" fill="white"/>
<path d="M20.5 15C19.949 15 19.5 14.551 19.5 14V10H13.5C12.949 10 12.5 10.449 12.5 11V25C12.5 25.552 12.949 26 13.5 26H23.5C24.052 26 24.5 25.552 24.5 25V15H20.5ZM16 13.062V12.5C16 12.224 16.224 12 16.5 12C16.776 12 17 12.224 17 12.5V13.063C17.313 13.134 17.605 13.266 17.846 13.462C18.061 13.636 18.093 13.951 17.918 14.165C17.743 14.38 17.428 14.411 17.215 14.237C17.026 14.084 16.772 14 16.5 14C15.958 14 15.5 14.343 15.5 14.75C15.5 15.157 15.958 15.5 16.5 15.5C17.603 15.5 18.5 16.285 18.5 17.25C18.5 18.063 17.86 18.742 17 18.938V19.5C17 19.776 16.776 20 16.5 20C16.224 20 16 19.776 16 19.5V18.937C15.687 18.866 15.395 18.734 15.154 18.538C14.939 18.363 14.907 18.048 15.082 17.834C15.257 17.618 15.571 17.588 15.785 17.762C15.974 17.916 16.228 18 16.5 18C17.042 18 17.5 17.657 17.5 17.25C17.5 16.843 17.042 16.5 16.5 16.5C15.397 16.5 14.5 15.715 14.5 14.75C14.5 13.937 15.14 13.258 16 13.062ZM22 24H15C14.724 24 14.5 23.776 14.5 23.5C14.5 23.224 14.724 23 15 23H22C22.276 23 22.5 23.224 22.5 23.5C22.5 23.776 22.276 24 22 24ZM22 22H15C14.724 22 14.5 21.776 14.5 21.5C14.5 21.224 14.724 21 15 21H22C22.276 21 22.5 21.224 22.5 21.5C22.5 21.776 22.276 22 22 22ZM22 20H20C19.724 20 19.5 19.776 19.5 19.5C19.5 19.224 19.724 19 20 19H22C22.276 19 22.5 19.224 22.5 19.5C22.5 19.776 22.276 20 22 20ZM22 18H20C19.724 18 19.5 17.776 19.5 17.5C19.5 17.224 19.724 17 20 17H22C22.276 17 22.5 17.223 22.5 17.5C22.5 17.776 22.276 18 22 18Z" fill="white"/>
</svg>
