<svg width="36" height="36" viewBox="0 0 36 36" fill="none" xmlns="http://www.w3.org/2000/svg">
<path d="M13.7713 2.01437C16.0786 0.661876 18.9214 0.661876 21.2287 2.01437L29.2713 6.72868C31.5786 8.08118 33 10.5807 33 13.2857V22.7143C33 25.4193 31.5786 27.9188 29.2713 29.2713L21.2287 33.9856C18.9214 35.3381 16.0786 35.3381 13.7713 33.9856L5.72872 29.2713C3.42138 27.9188 2 25.4193 2 22.7143V13.2857C2 10.5807 3.42138 8.08118 5.72872 6.72868L13.7713 2.01437Z" fill="#20BF6B"/>
<path d="M20 10V14H24L20 10Z" fill="white"/>
<path d="M20 15C19.449 15 19 14.551 19 14V10H13C12.449 10 12 10.449 12 11V25C12 25.552 12.449 26 13 26H23C23.552 26 24 25.552 24 25V15H20ZM15.5 13.062V12.5C15.5 12.224 15.724 12 16 12C16.276 12 16.5 12.224 16.5 12.5V13.063C16.813 13.134 17.105 13.266 17.346 13.462C17.561 13.636 17.593 13.951 17.418 14.165C17.243 14.38 16.928 14.411 16.715 14.237C16.526 14.084 16.272 14 16 14C15.458 14 15 14.343 15 14.75C15 15.157 15.458 15.5 16 15.5C17.103 15.5 18 16.285 18 17.25C18 18.063 17.36 18.742 16.5 18.938V19.5C16.5 19.776 16.276 20 16 20C15.724 20 15.5 19.776 15.5 19.5V18.937C15.187 18.866 14.895 18.734 14.654 18.538C14.439 18.363 14.407 18.048 14.582 17.834C14.757 17.618 15.071 17.588 15.285 17.762C15.474 17.916 15.728 18 16 18C16.542 18 17 17.657 17 17.25C17 16.843 16.542 16.5 16 16.5C14.897 16.5 14 15.715 14 14.75C14 13.937 14.64 13.258 15.5 13.062ZM21.5 24H14.5C14.224 24 14 23.776 14 23.5C14 23.224 14.224 23 14.5 23H21.5C21.776 23 22 23.224 22 23.5C22 23.776 21.776 24 21.5 24ZM21.5 22H14.5C14.224 22 14 21.776 14 21.5C14 21.224 14.224 21 14.5 21H21.5C21.776 21 22 21.224 22 21.5C22 21.776 21.776 22 21.5 22ZM21.5 20H19.5C19.224 20 19 19.776 19 19.5C19 19.224 19.224 19 19.5 19H21.5C21.776 19 22 19.224 22 19.5C22 19.776 21.776 20 21.5 20ZM21.5 18H19.5C19.224 18 19 17.776 19 17.5C19 17.224 19.224 17 19.5 17H21.5C21.776 17 22 17.223 22 17.5C22 17.776 21.776 18 21.5 18Z" fill="white"/>
</svg>
