<svg width="56" height="40" viewBox="0 0 56 40" fill="none" xmlns="http://www.w3.org/2000/svg">
<rect width="56" height="40" rx="8" fill="#6B7583" fill-opacity="0.25"/>
<g clip-path="url(#clip0_508_2923)">
<path d="M21.5 25C22.3284 25 23 24.3284 23 23.5C23 22.6716 22.3284 22 21.5 22C20.6716 22 20 22.6716 20 23.5C20 24.3284 20.6716 25 21.5 25Z" fill="#6B7583"/>
<path d="M37 11H19C18.2044 11 17.4413 11.3161 16.8787 11.8787C16.3161 12.4413 16 13.2044 16 14V29H40V14C40 13.2044 39.6839 12.4413 39.1213 11.8787C38.5587 11.3161 37.7956 11 37 11ZM19 13H37C37.2652 13 37.5196 13.1054 37.7071 13.2929C37.8946 13.4804 38 13.7348 38 14V16H18V14C18 13.7348 18.1054 13.4804 18.2929 13.2929C18.4804 13.1054 18.7348 13 19 13ZM18 27V18H38V27H18Z" fill="#6B7583"/>
</g>
<defs>
<clipPath id="clip0_508_2923">
<rect width="24" height="24" fill="white" transform="translate(16 8)"/>
</clipPath>
</defs>
</svg>
