<svg width="128" height="128" viewBox="0 0 128 128" fill="none" xmlns="http://www.w3.org/2000/svg">
<g opacity="0.25">
<path d="M81.4539 53.5294H48.8731C47.5879 53.5294 46.5459 52.4874 46.5459 51.2022C46.5459 49.917 47.5879 48.875 48.8731 48.875H81.4539C82.7391 48.875 83.7811 49.917 83.7811 51.2022C83.7811 52.4874 82.7391 53.5294 81.4539 53.5294Z" fill="#6B7583"/>
<path d="M81.4539 76.8009H48.8731C47.5879 76.8009 46.5459 75.7589 46.5459 74.4737C46.5459 73.1885 47.5879 72.1465 48.8731 72.1465H81.4539C82.7391 72.1465 83.7811 73.1885 83.7811 74.4737C83.7811 75.7589 82.7391 76.8009 81.4539 76.8009Z" fill="#6B7583"/>
<path d="M51.2002 12.8038C52.4855 12.8038 53.5274 11.7619 53.5274 10.4766C53.5274 9.19134 52.4855 8.14941 51.2002 8.14941C49.915 8.14941 48.873 9.19134 48.873 10.4766C48.873 11.7619 49.915 12.8038 51.2002 12.8038Z" fill="#6B7583"/>
<path d="M23.7477 54.8722L20.332 50.827C19.5116 49.8371 19.6489 48.3695 20.6391 47.5491C21.616 46.7396 23.0612 46.8612 23.8888 47.8226L26.3376 50.7249L36.7658 40.4296C37.6897 39.5354 39.1634 39.5596 40.0576 40.4832C40.9396 41.3943 40.93 42.8435 40.0364 43.743L28.5333 55.0994C27.2696 56.3637 25.2205 56.3643 23.956 55.1009C23.8827 55.0279 23.8132 54.9517 23.7477 54.8722Z" fill="#6B7583"/>
<path d="M23.7477 78.1447L20.332 74.0995C19.5116 73.1095 19.6489 71.6419 20.6391 70.8216C21.616 70.012 23.0612 70.1336 23.8888 71.095L26.3376 73.9973L36.7658 63.7021C37.6897 62.8079 39.1634 62.832 40.0576 63.7556C40.9396 64.6667 40.93 66.116 40.0364 67.0155L28.5333 78.3719C27.2696 79.6361 25.2205 79.6367 23.956 78.3733C23.8827 78.3003 23.8132 78.2241 23.7477 78.1447Z" fill="#6B7583"/>
<path d="M26.0751 103.744L22.6594 99.699C21.839 98.7091 21.9763 97.2415 22.9665 96.4212C23.9434 95.6116 25.3886 95.7332 26.2162 96.6946L28.665 99.5969L39.0932 89.3017C40.0171 88.4075 41.4908 88.4316 42.385 89.3555C43.2667 90.2666 43.2571 91.7159 42.3637 92.6153L30.8607 103.972C29.597 105.236 27.5479 105.237 26.2834 103.973C26.2101 103.9 26.1406 103.824 26.0751 103.744Z" fill="#6B7583"/>
<path d="M93.0898 107.055C87.9487 107.055 83.781 102.887 83.781 97.7463C83.781 92.6052 87.9487 88.4375 93.0898 88.4375C98.2309 88.4375 102.399 92.6052 102.399 97.7463C102.393 102.885 98.2285 107.05 93.0898 107.055ZM93.0898 93.0919C90.5191 93.0919 88.4354 95.1756 88.4354 97.7463C88.4354 100.317 90.5191 102.401 93.0898 102.401C95.6605 102.401 97.7442 100.317 97.7442 97.7463C97.7413 95.1771 95.659 93.0948 93.0898 93.0919Z" fill="#6B7583"/>
<path d="M118.689 102.401C118.673 88.2692 107.221 76.8173 93.0899 76.8013V23.2758C93.0858 19.4216 89.9624 16.2982 86.1083 16.2942H76.7995V13.967C76.7966 11.3977 74.7143 9.31547 72.1451 9.31256H65.8733C62.0573 1.20897 52.3945 -2.2667 44.2909 1.54932C40.8792 3.15596 38.134 5.90118 36.5276 9.31256H30.2558C27.6866 9.31547 25.6043 11.3977 25.6014 13.967V16.2942H16.2926C12.4385 16.2982 9.31511 19.4216 9.31104 23.2758V116.364C9.31511 120.218 12.4385 123.341 16.2926 123.345H78.4178C87.9823 130.091 100.913 129.448 109.761 121.786C109.776 121.776 109.793 121.774 109.808 121.763C109.878 121.715 109.915 121.642 109.978 121.589C115.51 116.746 118.685 109.753 118.689 102.401ZM114.035 102.401C114.033 107.549 112.125 112.514 108.68 116.338C100.953 107.728 87.7085 107.012 79.0985 114.74C78.5374 115.244 78.0036 115.777 77.5 116.338C69.7949 107.721 70.5347 94.4886 79.1523 86.7833C87.7699 79.0782 101.002 79.818 108.707 88.4356C112.141 92.2763 114.038 97.2487 114.035 102.401ZM30.2555 13.967H38.0325C39.0023 13.9152 39.8561 13.3101 40.2267 12.4124C42.3738 6.35179 49.0276 3.17923 55.0882 5.32636C58.3986 6.49927 61.0028 9.10399 62.1751 12.4147C62.5294 13.3249 63.3931 13.9358 64.3694 13.967H72.1451V23.2758H30.2555V13.967ZM13.9651 116.364V23.2758C13.9663 21.9911 15.0077 20.9497 16.2923 20.9486H25.6011V23.2758C25.604 25.845 27.6863 27.9272 30.2555 27.9302H72.1451C74.7143 27.9272 76.7966 25.845 76.7995 23.2758V20.9486H86.1083C87.3929 20.9497 88.4343 21.9911 88.4355 23.2758V77.2461C78.0242 79.1899 69.879 87.3348 67.9355 97.7461H48.8731C47.5879 97.7461 46.5459 98.7881 46.5459 100.073C46.5459 101.359 47.5879 102.401 48.8731 102.401H67.4907C67.4852 108.349 69.5611 114.112 73.3585 118.691H16.2923C15.0074 118.69 13.9663 117.649 13.9651 116.364ZM80.9629 119.446C86.9772 112.748 97.2821 112.194 103.98 118.209C104.414 118.599 104.827 119.011 105.217 119.446C97.9683 124.645 88.2115 124.645 80.9629 119.446Z" fill="#6B7583"/>
</g>
</svg>
