<svg width="129" height="128" viewBox="0 0 129 128" fill="none" xmlns="http://www.w3.org/2000/svg">
<g opacity="0.25">
<path d="M40.1994 70.4683C40.4391 70.4234 40.6677 70.3318 40.872 70.1986C41.0763 70.0654 41.2524 69.8932 41.3902 69.692C41.528 69.4907 41.6248 69.2643 41.6751 69.0256C41.7254 68.787 41.7281 68.5407 41.6832 68.301C41.4186 66.8826 41.2856 65.4428 41.2858 63.9999C41.2858 51.1995 51.6997 40.7856 64.5001 40.7856C77.3005 40.7856 87.7144 51.1995 87.7144 63.9999C87.7144 65.4456 87.5807 66.8924 87.317 68.301C87.272 68.5407 87.2748 68.787 87.325 69.0257C87.3752 69.2644 87.472 69.4908 87.6097 69.6921C87.7475 69.8934 87.9235 70.0656 88.1278 70.1988C88.3321 70.3321 88.5606 70.4238 88.8004 70.4688C89.0401 70.5137 89.2863 70.511 89.525 70.4607C89.7637 70.4105 89.9902 70.3138 90.1915 70.176C90.3927 70.0383 90.5649 69.8622 90.6982 69.6579C90.8315 69.4536 90.9232 69.2251 90.9681 68.9854C91.2746 67.3412 91.4288 65.6723 91.4287 63.9999C91.4287 49.1511 79.3489 37.0713 64.5001 37.0713C49.6513 37.0713 37.5715 49.1511 37.5715 63.9999C37.5715 65.6741 37.7266 67.3511 38.0321 68.9844C38.0766 69.2243 38.168 69.4531 38.3011 69.6576C38.4342 69.8621 38.6064 70.0384 38.8077 70.1762C39.0091 70.3141 39.2357 70.4108 39.4745 70.4609C39.7133 70.5111 39.9596 70.5136 40.1994 70.4683Z" fill="#6B7583"/>
<path d="M17.1429 75.1429H25.1908C26.0529 78.2012 27.2715 81.1477 28.8215 83.9216L23.1349 89.6081C22.2574 90.4847 21.7746 91.651 21.7746 92.8916C21.7746 94.1321 22.2584 95.2975 23.1349 96.1741L32.3269 105.366C33.2034 106.243 34.3697 106.726 35.6103 106.726C36.8509 106.726 38.0162 106.243 38.8937 105.366L44.5803 99.6794C47.3541 101.23 50.3006 102.448 53.359 103.31V111.357C53.359 113.917 55.4418 116 58.0019 116H71.0019C73.5619 116 75.6447 113.917 75.6447 111.357V103.309C78.7031 102.447 81.6495 101.228 84.4234 99.6785L90.11 105.365C90.9866 106.243 92.1529 106.725 93.3934 106.725C94.634 106.725 95.7994 106.242 96.6759 105.365L105.868 96.1731C106.744 95.2966 107.228 94.1303 107.228 92.8897C107.228 91.6491 106.745 90.4838 105.868 89.6063L100.181 83.9197C101.731 81.1459 102.95 78.1994 103.812 75.141H111.857C114.417 75.141 116.5 73.0582 116.5 70.4981V57.5C116.5 54.9399 114.417 52.8571 111.857 52.8571H103.809C102.947 49.7991 101.728 46.853 100.178 44.0794L105.865 38.3928C106.743 37.5162 107.225 36.3499 107.225 35.1094C107.225 33.8688 106.742 32.7034 105.865 31.8269L96.6731 22.634C95.8017 21.7647 94.6211 21.2765 93.3902 21.2765C92.1593 21.2765 90.9786 21.7647 90.1072 22.634L84.4206 28.3206C81.647 26.7708 78.7009 25.5522 75.6429 24.6899V16.6429C75.6429 14.0828 73.5601 12 71 12H58C55.4399 12 53.3571 14.0828 53.3571 16.6429V24.6908C50.2991 25.5531 47.353 26.7717 44.5794 28.3215L38.8928 22.634C38.0214 21.7647 36.8407 21.2765 35.6098 21.2765C34.3789 21.2765 33.1983 21.7647 32.3269 22.634L23.1349 31.8259C22.2584 32.7025 21.7746 33.8688 21.7746 35.1094C21.7746 36.3499 22.2574 37.5153 23.1349 38.3928L28.8215 44.0794C27.2717 46.853 26.0531 49.7991 25.1908 52.8571H17.1429C14.5828 52.8571 12.5 54.9399 12.5 57.5V70.5C12.5 73.0601 14.5828 75.1429 17.1429 75.1429ZM16.2143 57.5C16.2143 56.9884 16.6312 56.5714 17.1429 56.5714H26.6217C27.0376 56.5715 27.4414 56.4319 27.7685 56.1752C28.0957 55.9184 28.3272 55.5593 28.4259 55.1554C29.32 51.4842 30.7728 47.9722 32.7336 44.7424C32.9495 44.3868 33.0398 43.9691 32.9901 43.5561C32.9405 43.1432 32.7537 42.7588 32.4596 42.4646L25.7619 35.7668C25.6752 35.6807 25.6064 35.5784 25.5595 35.4656C25.5125 35.3529 25.4884 35.232 25.4884 35.1098C25.4884 34.9877 25.5125 34.8668 25.5595 34.754C25.6064 34.6413 25.6752 34.5389 25.7619 34.4529L34.9538 25.26C35.1281 25.0859 35.3644 24.988 35.6108 24.988C35.8571 24.988 36.0934 25.0859 36.2677 25.26L42.9655 31.9587C43.2596 32.2529 43.644 32.4398 44.057 32.4895C44.4701 32.5391 44.8878 32.4487 45.2433 32.2326C48.4732 30.2721 51.9852 28.8192 55.6563 27.925C56.0599 27.8261 56.4187 27.5947 56.6753 27.2677C56.9318 26.9408 57.0713 26.5373 57.0714 26.1217V16.6429C57.0714 16.1312 57.4884 15.7143 58 15.7143H71C71.5116 15.7143 71.9286 16.1312 71.9286 16.6429V26.1217C71.9285 26.5376 72.0681 26.9414 72.3248 27.2685C72.5816 27.5957 72.9407 27.8272 73.3446 27.9259C77.0158 28.82 80.5278 30.2728 83.7576 32.2336C84.1131 32.4496 84.5309 32.5401 84.9439 32.4904C85.3569 32.4407 85.7413 32.2538 86.0354 31.9596L92.7332 25.2619C92.9075 25.0877 93.1438 24.9899 93.3902 24.9899C93.6366 24.9899 93.8728 25.0877 94.0471 25.2619L103.239 34.4547C103.326 34.5408 103.394 34.6432 103.441 34.7559C103.488 34.8687 103.512 34.9896 103.512 35.1117C103.512 35.2338 103.488 35.3547 103.441 35.4674C103.394 35.5802 103.326 35.6825 103.239 35.7686L96.5413 42.4664C96.2471 42.7606 96.0602 43.1449 96.0105 43.558C95.9609 43.971 96.0513 44.3887 96.2674 44.7442C98.2279 47.9742 99.6808 51.4861 100.575 55.1572C100.674 55.5612 100.905 55.9203 101.232 56.177C101.56 56.4338 101.963 56.5733 102.379 56.5733H111.857C112.369 56.5733 112.786 56.9902 112.786 57.5019V70.5019C112.786 71.0135 112.369 71.4304 111.857 71.4304H102.378C101.962 71.4304 101.559 71.5699 101.231 71.8267C100.904 72.0834 100.673 72.4425 100.574 72.8465C99.6805 76.5178 98.2277 80.0299 96.2664 83.2595C96.0504 83.615 95.9599 84.0327 96.0096 84.4457C96.0593 84.8588 96.2462 85.2431 96.5404 85.5373L103.238 92.2351C103.325 92.3211 103.394 92.4235 103.441 92.5362C103.487 92.649 103.512 92.7699 103.512 92.892C103.512 93.0142 103.487 93.1351 103.441 93.2478C103.394 93.3606 103.325 93.4629 103.238 93.549L94.0453 102.741C93.9592 102.827 93.8568 102.896 93.7441 102.943C93.6313 102.99 93.5104 103.014 93.3883 103.014C93.2662 103.014 93.1453 102.99 93.0326 102.943C92.9198 102.896 92.8175 102.827 92.7314 102.741L86.0336 96.0431C85.7394 95.749 85.355 95.5621 84.942 95.5124C84.529 95.4627 84.1113 95.5532 83.7558 95.7692C80.5256 97.7293 77.0137 99.1821 73.3428 100.077C72.9393 100.175 72.5806 100.406 72.3241 100.733C72.0677 101.06 71.9284 101.463 71.9286 101.878V111.357C71.9286 111.869 71.5116 112.286 71 112.286H58C57.4884 112.286 57.0714 111.869 57.0714 111.357V101.878C57.0715 101.462 56.9319 101.059 56.6752 100.731C56.4184 100.404 56.0593 100.173 55.6554 100.074C51.984 99.1805 48.472 97.7277 45.2424 95.7664C44.887 95.5501 44.4692 95.4594 44.056 95.5091C43.6429 95.5588 43.2585 95.7459 42.9646 96.0404L36.2668 102.738C36.1807 102.825 36.0784 102.894 35.9656 102.941C35.8529 102.987 35.732 103.012 35.6098 103.012C35.4877 103.012 35.3668 102.987 35.254 102.941C35.1413 102.894 35.0389 102.825 34.9529 102.738L25.7609 93.5453C25.6744 93.4592 25.6057 93.3568 25.5588 93.2441C25.5119 93.1313 25.4878 93.0104 25.4878 92.8883C25.4878 92.7662 25.5119 92.6453 25.5588 92.5326C25.6057 92.4198 25.6744 92.3175 25.7609 92.2314L32.4587 85.5336C32.7529 85.2394 32.9398 84.855 32.9895 84.442C33.0391 84.029 32.9487 83.6113 32.7326 83.2558C30.7725 80.0256 29.3197 76.5137 28.425 72.8428C28.3259 72.4393 28.0944 72.0807 27.7675 71.8244C27.4406 71.568 27.0372 71.4286 26.6217 71.4286H17.1429C16.6312 71.4286 16.2143 71.0116 16.2143 70.5V57.5Z" fill="#6B7583"/>
<path d="M44.0556 90.9295H84.9443C87.3373 90.9295 89.46 89.6815 90.6235 87.5913C91.787 85.5011 91.7294 83.0385 90.4684 81.005L70.0241 48.0295C68.8308 46.1037 66.7657 44.9541 64.5 44.9541C62.2343 44.9541 60.1691 46.1037 58.9759 48.0295L38.5316 81.005C37.2706 83.0385 37.213 85.5011 38.3765 87.5913C39.54 89.6815 41.6627 90.9295 44.0556 90.9295ZM41.6878 82.9615L62.1321 49.987C62.6512 49.1494 63.5148 48.6693 64.5 48.6693C65.4852 48.6693 66.3488 49.1494 66.8679 49.987L87.3122 82.9615C87.8526 83.8334 87.8768 84.8882 87.3781 85.7843C86.8795 86.6804 85.9695 87.2152 84.9443 87.2152H44.0556C43.0305 87.2152 42.1205 86.6804 41.6218 85.7843C41.1232 84.8882 41.1483 83.8334 41.6878 82.9615Z" fill="#6B7583"/>
<path d="M64.5 75.1429C64.9925 75.1429 65.4649 74.9472 65.8132 74.5989C66.1614 74.2506 66.3571 73.7783 66.3571 73.2857V59.3571C66.3571 58.8646 66.1614 58.3922 65.8132 58.0439C65.4649 57.6957 64.9925 57.5 64.5 57.5C64.0074 57.5 63.535 57.6957 63.1868 58.0439C62.8385 58.3922 62.6428 58.8646 62.6428 59.3571V73.2857C62.6428 73.7783 62.8385 74.2506 63.1868 74.5989C63.535 74.9472 64.0074 75.1429 64.5 75.1429ZM64.5 83.5C64.9925 83.5 65.4649 83.3043 65.8132 82.9561C66.1614 82.6078 66.3571 82.1354 66.3571 81.6429V80.7143C66.3571 80.2217 66.1614 79.7494 65.8132 79.4011C65.4649 79.0528 64.9925 78.8571 64.5 78.8571C64.0074 78.8571 63.535 79.0528 63.1868 79.4011C62.8385 79.7494 62.6428 80.2217 62.6428 80.7143V81.6429C62.6428 82.1354 62.8385 82.6078 63.1868 82.9561C63.535 83.3043 64.0074 83.5 64.5 83.5Z" fill="#6B7583"/>
</g>
</svg>
