<svg width="32" height="32" viewBox="0 0 32 32" fill="none" xmlns="http://www.w3.org/2000/svg">
<circle cx="16" cy="16" r="16" fill="#C07DFF"/>
<g clip-path="url(#clip0_1856_3416)">
<path d="M19.3333 25.1667C19.3333 25.6267 18.9608 26 18.4999 26H10.9999C8.70242 26 6.83325 24.1308 6.83325 21.8333V10.1667C6.83325 7.86917 8.70242 6 10.9999 6H14.7624C16.3199 6 17.7849 6.60667 18.8874 7.70833L21.7908 10.6133C22.0166 10.8392 22.2266 11.0867 22.4141 11.3492C22.6816 11.7233 22.5949 12.2442 22.2208 12.5117C21.8466 12.7783 21.3249 12.6925 21.0583 12.3175C20.9241 12.13 20.7741 11.9525 20.6133 11.7925L17.7091 8.8875C17.4441 8.6225 17.1499 8.39833 16.8333 8.21667V11.8333C16.8333 12.2925 17.2066 12.6667 17.6666 12.6667H20.1666C20.6274 12.6667 20.9999 13.04 20.9999 13.5C20.9999 13.96 20.6274 14.3333 20.1666 14.3333H17.6666C16.2883 14.3333 15.1666 13.2117 15.1666 11.8333V7.68583C15.0333 7.67333 14.8983 7.66667 14.7624 7.66667H10.9999C9.62159 7.66667 8.49992 8.78833 8.49992 10.1667V21.8333C8.49992 23.2117 9.62159 24.3333 10.9999 24.3333H18.4999C18.9608 24.3333 19.3333 24.7067 19.3333 25.1667ZM24.0708 19.5558L21.5366 19.1333C21.2258 19.0817 20.9999 18.815 20.9999 18.5C20.9999 18.0408 21.3733 17.6667 21.8333 17.6667H23.7233C24.0199 17.6667 24.2966 17.8267 24.4458 18.0833C24.6749 18.4817 25.1833 18.6175 25.5841 18.3875C25.9824 18.1567 26.1191 17.6475 25.8874 17.2492C25.4424 16.4783 24.6124 15.9992 23.7224 15.9992H23.4991V15.1658C23.4991 14.7058 23.1266 14.3325 22.6658 14.3325C22.2049 14.3325 21.8324 14.7058 21.8324 15.1658V15.9992C20.4541 15.9992 19.3324 17.1208 19.3324 18.4992C19.3324 19.6325 20.1441 20.5908 21.2616 20.7767L23.7958 21.1992C24.1066 21.2508 24.3324 21.5175 24.3324 21.8325C24.3324 22.2917 23.9591 22.6658 23.4991 22.6658H21.6091C21.3124 22.6658 21.0358 22.5058 20.8866 22.2492C20.6574 21.85 20.1483 21.7142 19.7483 21.945C19.3499 22.1758 19.2133 22.685 19.4449 23.0833C19.8899 23.8542 20.7199 24.3325 21.6099 24.3325H21.8333V25.1658C21.8333 25.6258 22.2058 25.9992 22.6666 25.9992C23.1274 25.9992 23.4999 25.6258 23.4999 25.1658V24.3325C24.8783 24.3325 25.9999 23.2108 25.9999 21.8325C25.9999 20.6992 25.1883 19.7417 24.0708 19.5558ZM12.2499 18.5H16.8333C17.2941 18.5 17.6666 18.1267 17.6666 17.6667C17.6666 17.2067 17.2941 16.8333 16.8333 16.8333H12.2499C11.1016 16.8333 10.1666 17.7683 10.1666 18.9167V20.5833C10.1666 21.7317 11.1016 22.6667 12.2499 22.6667H16.8333C17.2941 22.6667 17.6666 22.2933 17.6666 21.8333C17.6666 21.3733 17.2941 21 16.8333 21H12.2499C12.0199 21 11.8333 20.8133 11.8333 20.5833V18.9167C11.8333 18.6867 12.0199 18.5 12.2499 18.5ZM10.9999 15.1667H12.6666C13.1266 15.1667 13.4999 14.7933 13.4999 14.3333C13.4999 13.8733 13.1266 13.5 12.6666 13.5H10.9999C10.5399 13.5 10.1666 13.8733 10.1666 14.3333C10.1666 14.7933 10.5399 15.1667 10.9999 15.1667ZM10.9999 11.8333H12.6666C13.1266 11.8333 13.4999 11.46 13.4999 11C13.4999 10.54 13.1266 10.1667 12.6666 10.1667H10.9999C10.5399 10.1667 10.1666 10.54 10.1666 11C10.1666 11.46 10.5399 11.8333 10.9999 11.8333Z" fill="white"/>
</g>
<defs>
<clipPath id="clip0_1856_3416">
<rect width="20" height="20" fill="white" transform="translate(6 6)"/>
</clipPath>
</defs>
</svg>
