<svg width="32" height="32" viewBox="0 0 32 32" fill="none" xmlns="http://www.w3.org/2000/svg">
<circle cx="16" cy="16" r="16" fill="#6B7583"/>
<g clip-path="url(#clip0_1856_3445)">
<path d="M25.0258 13.6432L21.7933 10.4107C21.4623 10.0909 20.9347 10.1001 20.615 10.4312C20.3031 10.7541 20.3031 11.2661 20.615 11.589L23.8475 14.8215C23.9436 14.9195 24.0275 15.0286 24.0975 15.1465C24.085 15.1465 24.075 15.1399 24.0625 15.1399L10.9925 15.1665C10.5323 15.1665 10.1592 15.5396 10.1592 15.9999C10.1592 16.4601 10.5323 16.8332 10.9925 16.8332L24.0575 16.8065C24.0808 16.8065 24.1 16.7948 24.1225 16.7932C24.0486 16.9341 23.9548 17.0638 23.8442 17.1782L20.6117 20.4107C20.2806 20.7304 20.2714 21.2579 20.5912 21.589C20.9109 21.92 21.4384 21.9292 21.7695 21.6095C21.7764 21.6028 21.7833 21.5959 21.79 21.589L25.0225 18.3565C26.3238 17.0548 26.3238 14.9448 25.0225 13.6432H25.0258Z" fill="white"/>
<path d="M11.835 24.3333H10.1683C8.78765 24.3333 7.66835 23.214 7.66835 21.8333V10.1667C7.66835 8.78598 8.78765 7.66668 10.1683 7.66668H11.835C12.2953 7.66668 12.6683 7.29359 12.6683 6.83336C12.6683 6.37313 12.2953 6 11.835 6H10.1683C7.86835 6.00277 6.00448 7.86664 6.00171 10.1667V21.8334C6.00448 24.1334 7.86835 25.9973 10.1684 26H11.8351C12.2953 26 12.6684 25.6269 12.6684 25.1667C12.6684 24.7064 12.2953 24.3333 11.835 24.3333Z" fill="white"/>
</g>
<defs>
<clipPath id="clip0_1856_3445">
<rect width="20" height="20" fill="white" transform="translate(6 6)"/>
</clipPath>
</defs>
</svg>
