<svg width="24" height="24" viewBox="0 0 24 24" fill="none" xmlns="http://www.w3.org/2000/svg">
<path d="M22.8309 9.17239L18.9519 5.29339C18.5547 4.90972 17.9216 4.92074 17.538 5.318C17.1637 5.70552 17.1637 6.31991 17.538 6.70743L21.417 10.5864C21.5322 10.7039 21.6329 10.8349 21.717 10.9764C21.702 10.9764 21.69 10.9684 21.6749 10.9684L5.99095 11.0004C5.43867 11.0004 4.99097 11.4481 4.99097 12.0004C4.99097 12.5527 5.43867 13.0004 5.99095 13.0004L21.669 12.9684C21.6969 12.9684 21.72 12.9544 21.747 12.9524C21.6583 13.1216 21.5458 13.2771 21.413 13.4144L17.534 17.2934C17.1367 17.6771 17.1257 18.3101 17.5094 18.7074C17.893 19.1046 18.5261 19.1157 18.9233 18.732C18.9317 18.7239 18.9399 18.7157 18.948 18.7074L22.827 14.8284C24.3885 13.2664 24.3885 10.7344 22.827 9.17239H22.8309Z" fill="#2C2C2C"/>
<path d="M7.00194 22H5.00192C3.34508 22 2.00192 20.6568 2.00192 19V5.00002C2.00192 3.34317 3.34508 2.00002 5.00192 2.00002H7.00194C7.55422 2.00002 8.00192 1.55231 8.00192 1.00003C8.00192 0.44775 7.55427 0 7.00194 0H5.00192C2.24192 0.00332812 0.00528125 2.23997 0.00195312 5.00002V19C0.00528125 21.76 2.24192 23.9967 5.00197 24H7.00198C7.55427 24 8.00197 23.5523 8.00197 23C8.00197 22.4477 7.55427 22 7.00194 22Z" fill="#2C2C2C"/>
</svg>
