<svg width="110" height="110" viewBox="0 0 110 110" fill="none" xmlns="http://www.w3.org/2000/svg">
<path d="M55 103C81.5097 103 103 81.5097 103 55C103 28.4903 81.5097 7 55 7C28.4903 7 7 28.4903 7 55C7 81.5097 28.4903 103 55 103Z" fill="#FC4637"/>
<path fill-rule="evenodd" clip-rule="evenodd" d="M102.988 55.9345C102.496 81.7015 81.7016 102.496 55.9346 102.988C47.781 94.8347 39.6056 86.6993 31.4532 78.5469C29.32 76.4137 29.3198 72.9231 31.453 70.7897L47.2428 54.9999L31.453 39.2101C29.3198 37.0769 29.3198 33.5863 31.453 31.4531C33.5862 29.3199 37.0768 29.3197 39.2102 31.4529L55 47.2427L70.7898 31.4529C72.923 29.3197 76.4136 29.3197 78.547 31.4529C86.6994 39.6053 94.8346 47.7809 102.988 55.9345Z" fill="#DB3A3C"/>
<path fill-rule="evenodd" clip-rule="evenodd" d="M31.453 78.5469C33.5862 80.6801 37.077 80.6801 39.2102 78.5469L55 62.7571L70.7898 78.5469C72.923 80.6801 76.4136 80.6801 78.5468 78.5469C80.68 76.4137 80.68 72.9231 78.5468 70.7897L62.7572 54.9999L78.547 39.2101C80.6802 37.0769 80.6802 33.5863 78.547 31.4531C76.4138 29.3199 72.9232 29.3199 70.7898 31.4531L55 47.2427L39.2102 31.4529C37.077 29.3197 33.5864 29.3197 31.4532 31.4529C29.32 33.5861 29.32 37.0767 31.4532 39.2099L47.2428 54.9999L31.453 70.7897C29.3198 72.9229 29.3198 76.4137 31.453 78.5469Z" fill="white"/>
</svg>
