<svg width="24" height="24" viewBox="0 0 24 24" fill="none" xmlns="http://www.w3.org/2000/svg">
<path d="M17.6601 22.6703C17.1301 22.6703 16.4501 22.5003 15.6001 22.0003L12.6101 20.2303C12.3001 20.0503 11.7001 20.0503 11.4001 20.2303L8.40012 22.0003C6.63012 23.0503 5.59012 22.6303 5.12012 22.2903C4.66012 21.9503 3.94012 21.0803 4.41012 19.0803L5.12012 16.0103C5.20012 15.6903 5.04012 15.1403 4.80012 14.9003L2.32012 12.4203C1.08012 11.1803 1.18012 10.1203 1.35012 9.60031C1.52012 9.08031 2.06012 8.16031 3.78012 7.87031L6.97012 7.34031C7.27012 7.29031 7.70012 6.97031 7.83012 6.70031L9.60012 3.17031C10.4001 1.56031 11.4501 1.32031 12.0001 1.32031C12.5501 1.32031 13.6001 1.56031 14.4001 3.17031L16.1601 6.69031C16.3001 6.96031 16.7301 7.28031 17.0301 7.33031L20.2201 7.86031C21.9501 8.15031 22.4901 9.07031 22.6501 9.59031C22.8101 10.1103 22.9101 11.1703 21.6801 12.4103L19.2001 14.9003C18.9601 15.1403 18.8101 15.6803 18.8801 16.0103L19.5901 19.0803C20.0501 21.0803 19.3401 21.9503 18.8801 22.2903C18.6301 22.4703 18.2301 22.6703 17.6601 22.6703Z" fill="#F1C570"/>
</svg>
