
<svg width="129" height="128" viewBox="0 0 129 128" fill="none" xmlns="http://www.w3.org/2000/svg">
<g opacity="0.25" clip-path="url(#clip0_563_12655)">
<path d="M113.058 94.9012H105.566V85.0261C105.566 83.6468 104.448 82.5287 103.069 82.5287C101.69 82.5287 100.571 83.6468 100.571 85.0261V97.3986C100.571 98.7779 101.69 99.8959 103.069 99.8959H113.058C114.437 99.8959 115.556 98.7779 115.556 97.3986C115.556 96.0193 114.437 94.9012 113.058 94.9012ZM18.305 39.8043H53.1215C54.5006 39.8043 55.6189 38.6862 55.6189 37.3069C55.6189 35.9276 54.5006 34.8096 53.1215 34.8096H18.305C16.9259 34.8096 15.8076 35.9276 15.8076 37.3069C15.8076 38.6862 16.9257 39.8043 18.305 39.8043ZM61.8051 79.7417H18.305C16.9259 79.7417 15.8076 80.8598 15.8076 82.239C15.8076 83.6183 16.9259 84.7364 18.305 84.7364H61.8054C63.1844 84.7364 64.3027 83.6183 64.3027 82.239C64.3027 80.8598 63.1844 79.7417 61.8051 79.7417ZM61.8051 94.7191H18.305C16.9259 94.7191 15.8076 95.8372 15.8076 97.2165C15.8076 98.5958 16.9259 99.7139 18.305 99.7139H61.8054C63.1844 99.7139 64.3027 98.5958 64.3027 97.2165C64.3027 95.8372 63.1844 94.7191 61.8051 94.7191ZM75.8475 64.7645H18.305C16.9259 64.7645 15.8076 65.8825 15.8076 67.2618C15.8076 68.6411 16.9259 69.7592 18.305 69.7592H75.8475C77.2266 69.7592 78.3449 68.6411 78.3449 67.2618C78.3449 65.8825 77.2266 64.7645 75.8475 64.7645Z" fill="#6B7583"/>
<path d="M120.905 79.4482C113.46 72.0033 102.48 70.196 93.3169 74.0237V29.8795C93.3169 28.0529 92.6056 26.3357 91.3142 25.0443L68.276 2.00336C67.7399 1.46962 67.1187 1.02873 66.438 0.698741C66.415 0.686254 66.391 0.675515 66.3678 0.663528L66.3588 0.659282C66.2849 0.621967 66.2091 0.588459 66.1318 0.558888C65.2809 0.192842 64.3646 0.00305105 63.4384 0.000976563L7.93441 0.000976562C3.94936 0.000976562 0.707031 3.24306 0.707031 7.22835V120.774C0.707031 124.759 3.94911 128.001 7.93416 128.001H86.0892C89.9052 128.001 93.0746 125.018 93.3046 121.209C93.3078 121.159 93.3094 121.109 93.3094 121.058V120.541C96.4011 121.832 99.7185 122.496 103.069 122.495C109.528 122.495 115.987 120.036 120.905 115.119C125.669 110.355 128.292 104.021 128.292 97.2836C128.292 90.5462 125.669 84.2122 120.905 79.4482ZM84.7906 25.584H68.2883C68.1416 25.5842 68.0008 25.5262 67.8968 25.4227C67.7928 25.3193 67.7341 25.1788 67.7336 25.0321V8.52524L84.7906 25.584ZM88.3146 120.969C88.214 122.116 87.248 123.006 86.0895 123.006H7.93441C6.70321 123.006 5.70201 122.005 5.70201 120.774V7.22835C5.70201 5.99715 6.70346 4.99571 7.93441 4.99571H62.7391V25.0321C62.7391 28.0906 65.2285 30.5787 68.2885 30.5787H88.3224V76.8197C87.2241 77.6117 86.1912 78.4907 85.2336 79.4482C80.4697 84.2124 77.8459 90.5465 77.8459 97.2839C77.8459 104.021 80.4697 110.355 85.2336 115.12C86.189 116.075 87.2194 116.952 88.3149 117.743V120.969H88.3146ZM117.373 111.588C109.486 119.475 96.6523 119.475 88.7652 111.588C84.9444 107.767 82.8402 102.687 82.8402 97.2839C82.8402 91.8808 84.9444 86.8007 88.7652 82.9802C92.7087 79.0366 97.8888 77.0647 103.069 77.0647C108.249 77.0647 113.429 79.0366 117.372 82.9802C121.193 86.8009 123.297 91.8808 123.297 97.2839C123.297 102.687 121.193 107.767 117.373 111.588Z" fill="#6B7583"/>
<path d="M18.056 54.943H63.1117C64.4907 54.943 65.6091 53.8249 65.6091 52.4456C65.6091 51.0663 64.4907 49.9482 63.1117 49.9482H18.056C16.6769 49.9482 15.5586 51.0663 15.5586 52.4456C15.5586 53.8249 16.6767 54.943 18.056 54.943Z" fill="#6B7583"/>
<path d="M75.5396 54.9445C76.9196 54.9445 78.0382 53.8258 78.0382 52.4459C78.0382 51.0659 76.9196 49.9473 75.5396 49.9473C74.1597 49.9473 73.041 51.0659 73.041 52.4459C73.041 53.8258 74.1597 54.9445 75.5396 54.9445Z" fill="#6B7583"/>
</g>
<defs>
<clipPath id="clip0_563_12655">
<rect width="128" height="128" fill="white" transform="translate(0.5)"/>
</clipPath>
</defs>
</svg>
