<svg width="111" height="80" viewBox="0 0 111 80" fill="none" xmlns="http://www.w3.org/2000/svg">
<path opacity="0.15" d="M79.7182 50.4006L37.9087 67.7955L63.0349 87.0391L104.922 69.71L79.7182 50.4006Z" fill="url(#paint0_linear_447_13316)"/>
<path opacity="0.8" d="M29.797 22.8895L49.1388 14.8406C50.9779 14.0752 52.8262 13.5297 54.5113 16.1234C56.2058 18.7149 58.0521 18.1681 59.8911 17.4027L68.1783 13.9537C69.703 13.3199 71.2824 14.2358 71.7117 16.0109L79.7181 50.402L37.9088 67.7957L27.8098 27.2346C27.3825 25.4688 28.2723 23.5233 29.797 22.8895Z" fill="#45A1B5"/>
<path d="M74.7554 17.4897L82.0276 14.4634C83.5331 13.8373 84.5873 14.544 84.3839 16.0401L79.7194 50.4009L37.9101 67.7947L41.8382 38.8655C42.0428 37.3593 43.425 35.6401 44.9305 35.014L64.9309 26.6911C66.747 25.9362 68.5453 25.026 69.8385 22.0915C71.1398 19.1557 72.9391 18.2457 74.7554 17.4897Z" fill="#45A1B5"/>
<path opacity="0.05" d="M74.7554 17.4897L82.0276 14.4634C83.5331 13.8373 84.5873 14.544 84.3839 16.0401L79.7194 50.4009L37.9101 67.7947L41.8382 38.8655C42.0428 37.3593 43.425 35.6401 44.9305 35.014L64.9309 26.6911C66.747 25.9362 68.5453 25.026 69.8385 22.0915C71.1398 19.1557 72.9391 18.2457 74.7554 17.4897Z" fill="black"/>
<defs>
<linearGradient id="paint0_linear_447_13316" x1="77.1443" y1="82.2881" x2="63.9564" y2="51.1304" gradientUnits="userSpaceOnUse">
<stop stop-opacity="0"/>
<stop offset="1"/>
</linearGradient>
</defs>
</svg>
