<svg width="24" height="24" viewBox="0 0 24 24" fill="none" xmlns="http://www.w3.org/2000/svg">
<g clip-path="url(#clip0_405_3004)">
<path d="M8.50003 9.49991C8.50003 10.0509 8.62803 10.5729 8.85603 11.0369C8.36603 11.6649 8.06103 12.4439 8.02003 13.2929C7.07903 12.3049 6.50003 10.9689 6.50003 9.50091C6.50003 6.08991 9.62203 3.39391 13.159 4.11991C15.241 4.54791 16.928 6.22491 17.372 8.30391C17.506 8.93191 17.531 9.54691 17.463 10.1349C17.405 10.6329 16.968 11.0009 16.466 11.0009H16.421C15.829 11.0009 15.413 10.4739 15.478 9.88591C15.522 9.49091 15.499 9.07591 15.398 8.65291C15.1 7.39991 14.078 6.38491 12.823 6.09591C10.537 5.57091 8.49903 7.30291 8.49903 9.50091L8.50003 9.49991ZM4.61003 8.20491C4.88403 6.61191 5.66303 5.15991 6.87103 4.02691C8.40003 2.59391 10.402 1.88591 12.501 2.01591C16.454 2.27191 19.545 5.73491 19.499 9.88091C19.48 11.6169 18.026 12.9989 16.291 12.9989H13.885C13.641 12.1699 12.883 11.5599 11.975 11.5599C10.87 11.5599 9.97503 12.4549 9.97503 13.5599C9.97503 14.6649 10.87 15.5599 11.975 15.5599C12.513 15.5599 13 15.3449 13.359 14.9989H16.291C19.11 14.9989 21.459 12.7539 21.499 9.93591C21.573 4.71491 17.651 0.34491 12.63 0.0209097C9.96603 -0.15209 7.43903 0.75291 5.50403 2.56891C4.00503 3.97391 3.00803 5.83391 2.64903 7.83491C2.54003 8.44291 3.02103 9.00091 3.63803 9.00091C4.11003 9.00091 4.53103 8.67191 4.61003 8.20591V8.20491ZM12 16.9999C8.30503 16.9999 5.10803 19.2919 4.04503 22.7019C3.88003 23.2289 4.17503 23.7899 4.70203 23.9549C5.22803 24.1139 5.78903 23.8239 5.95403 23.2979C6.30503 22.1709 7.00603 21.2089 7.90603 20.4729L9.30703 22.5739C9.66203 23.1059 10.443 23.1059 10.798 22.5739L12.052 20.6919L13.306 22.5739C13.661 23.1059 14.442 23.1059 14.797 22.5739L16.16 20.5299C17.027 21.2589 17.702 22.1999 18.044 23.2979C18.178 23.7259 18.572 23.9999 18.999 23.9999C19.098 23.9999 19.197 23.9849 19.297 23.9549C19.824 23.7899 20.118 23.2289 19.954 22.7019C18.891 19.2919 15.694 16.9999 11.999 16.9999H12Z" fill="#2C2C2C"/>
</g>
<defs>
<clipPath id="clip0_405_3004">
<rect width="24" height="24" fill="white"/>
</clipPath>
</defs>
</svg>
