<svg width="32" height="32" viewBox="0 0 32 32" fill="none" xmlns="http://www.w3.org/2000/svg">
<circle cx="16" cy="16" r="16" fill="#7552D9"/>
<g clip-path="url(#clip0_1856_3435)">
<path d="M13.0833 13.9166C13.0833 14.3758 13.19 14.8108 13.38 15.1974C12.9716 15.7208 12.7175 16.3699 12.6833 17.0774C11.8991 16.2541 11.4166 15.1408 11.4166 13.9174C11.4166 11.0749 14.0183 8.82826 16.9658 9.43326C18.7008 9.78993 20.1066 11.1874 20.4766 12.9199C20.5883 13.4433 20.6091 13.9558 20.5525 14.4458C20.5041 14.8608 20.14 15.1674 19.7216 15.1674H19.6841C19.1908 15.1674 18.8441 14.7283 18.8983 14.2383C18.935 13.9091 18.9158 13.5633 18.8316 13.2108C18.5833 12.1666 17.7316 11.3208 16.6858 11.0799C14.7808 10.6424 13.0825 12.0858 13.0825 13.9174L13.0833 13.9166ZM9.84165 12.8374C10.07 11.5099 10.7191 10.2999 11.7258 9.35576C13 8.16159 14.6683 7.57159 16.4175 7.67992C19.7116 7.89326 22.2875 10.7791 22.2491 14.2341C22.2333 15.6808 21.0216 16.8324 19.5758 16.8324H17.5708C17.3675 16.1416 16.7358 15.6333 15.9791 15.6333C15.0583 15.6333 14.3125 16.3791 14.3125 17.2999C14.3125 18.2208 15.0583 18.9666 15.9791 18.9666C16.4275 18.9666 16.8333 18.7874 17.1325 18.4991H19.5758C21.925 18.4991 23.8825 16.6283 23.9158 14.2799C23.9775 9.92909 20.7091 6.28742 16.525 6.01742C14.305 5.87326 12.1991 6.62742 10.5866 8.14076C9.33748 9.31159 8.50665 10.8616 8.20748 12.5291C8.11665 13.0358 8.51748 13.5008 9.03165 13.5008C9.42498 13.5008 9.77581 13.2266 9.84165 12.8383V12.8374ZM16 20.1666C12.9208 20.1666 10.2566 22.0766 9.37081 24.9183C9.23331 25.3574 9.47915 25.8249 9.91831 25.9624C10.3566 26.0949 10.8241 25.8533 10.9616 25.4149C11.2541 24.4758 11.8383 23.6741 12.5883 23.0608L13.7558 24.8116C14.0516 25.2549 14.7025 25.2549 14.9983 24.8116L16.0433 23.2433L17.0883 24.8116C17.3841 25.2549 18.035 25.2549 18.3308 24.8116L19.4666 23.1083C20.1891 23.7158 20.7516 24.4999 21.0366 25.4149C21.1483 25.7716 21.4766 25.9999 21.8325 25.9999C21.915 25.9999 21.9975 25.9874 22.0808 25.9624C22.52 25.8249 22.765 25.3574 22.6283 24.9183C21.7425 22.0766 19.0783 20.1666 15.9991 20.1666H16Z" fill="white"/>
</g>
<defs>
<clipPath id="clip0_1856_3435">
<rect width="20" height="20" fill="white" transform="translate(6 6)"/>
</clipPath>
</defs>
</svg>
