<svg width="32" height="32" viewBox="0 0 32 32" fill="none" xmlns="http://www.w3.org/2000/svg">
<circle cx="16" cy="16" r="16" fill="#3867D6"/>
<g clip-path="url(#clip0_1856_3390)">
<path d="M14.3333 24.3333V23.5C14.3333 22.1217 13.2117 21 11.8333 21H11.5225C12.075 19.9558 12.6667 18.6967 12.6667 18.0833C12.6667 16.9325 11.7342 16.0417 10.5833 16.0417C9.4325 16.0417 8.5 16.9325 8.5 18.0833C8.5 18.6967 9.09167 19.9558 9.64417 21H9.33333C7.955 21 6.83333 22.1217 6.83333 23.5V24.3333C6.3725 24.3333 6 24.7058 6 25.1667C6 25.6275 6.3725 26 6.83333 26H14.3333C14.7942 26 15.1667 25.6275 15.1667 25.1667C15.1667 24.7058 14.7942 24.3333 14.3333 24.3333ZM12.6667 24.3333H8.5V23.5C8.5 23.04 8.87333 22.6667 9.33333 22.6667H11.8333C12.2933 22.6667 12.6667 23.04 12.6667 23.5V24.3333ZM19.3333 15.1667H16C15.5392 15.1667 15.1667 14.7942 15.1667 14.3333C15.1667 13.8725 15.5392 13.5 16 13.5H19.3333C19.7942 13.5 20.1667 13.8725 20.1667 14.3333C20.1667 14.7942 19.7942 15.1667 19.3333 15.1667ZM26 10.1667V21.8333C26 24.1308 24.1308 26 21.8333 26H17.6667C17.2058 26 16.8333 25.6275 16.8333 25.1667C16.8333 24.7058 17.2058 24.3333 17.6667 24.3333H21.8333C23.2117 24.3333 24.3333 23.2117 24.3333 21.8333V10.1667C24.3333 8.78833 23.2117 7.66667 21.8333 7.66667H15.1667C13.7883 7.66667 12.6667 8.78833 12.6667 10.1667V13.5425C12.6667 14.0033 12.2942 14.3758 11.8333 14.3758C11.3725 14.3758 11 14.0033 11 13.5425V10.1667C11 7.86917 12.8692 6 15.1667 6H21.8333C24.1308 6 26 7.86917 26 10.1667ZM16.8333 19.75C16.8333 21.3583 18.1417 22.6667 19.75 22.6667C21.3583 22.6667 22.6667 21.3583 22.6667 19.75C22.6667 18.1417 21.3583 16.8333 19.75 16.8333C18.1417 16.8333 16.8333 18.1417 16.8333 19.75ZM21 19.75C21 20.4392 20.4392 21 19.75 21C19.0608 21 18.5 20.4392 18.5 19.75C18.5 19.0608 19.0608 18.5 19.75 18.5C20.4392 18.5 21 19.0608 21 19.75ZM21.8333 11C21.8333 11.4608 21.4608 11.8333 21 11.8333H16C15.5392 11.8333 15.1667 11.4608 15.1667 11C15.1667 10.5392 15.5392 10.1667 16 10.1667H21C21.4608 10.1667 21.8333 10.5392 21.8333 11Z" fill="white"/>
</g>
<defs>
<clipPath id="clip0_1856_3390">
<rect width="20" height="20" fill="white" transform="translate(6 6)"/>
</clipPath>
</defs>
</svg>
