<svg width="28" height="28" viewBox="0 0 28 28" fill="none" xmlns="http://www.w3.org/2000/svg">
<rect width="28" height="28" rx="8" fill="#ED1C24"/>
<path d="M24 14.0044C22.7057 14.3214 21.3125 13.2912 20.1111 13.5113C20.1111 13.4976 20.1111 13.4771 20.1092 13.4712C21.2636 12.9194 23.1782 13.5309 23.8757 12.4332C22.6558 12.9586 21.1217 12.1602 19.9761 12.5594C19.9722 12.5398 19.9683 12.5271 19.9624 12.5056C21.0161 11.8002 22.9953 12.0927 23.5099 10.9099C22.3887 11.6153 20.7578 11.0763 19.6865 11.6359C19.6807 11.6153 19.6709 11.5938 19.666 11.5879C20.5964 10.7241 22.5863 10.7035 22.9072 9.45908C21.9122 10.3308 20.2285 10.0568 19.2551 10.77C19.2463 10.7563 19.2365 10.7378 19.2248 10.7162C20.0172 9.72616 21.9631 9.3994 22.0854 8.12366C21.246 9.13427 19.5437 9.13427 18.6906 9.97857C18.6769 9.96292 18.6681 9.94629 18.6505 9.93259C19.2844 8.83393 21.1452 8.21073 21.0699 6.92521C20.3919 8.05615 18.7209 8.32226 18.0097 9.28689C17.995 9.2732 17.9764 9.26048 17.9608 9.24678C18.4235 8.06985 20.1464 7.15022 19.8773 5.91459C19.3882 7.12576 17.7817 7.65113 17.2231 8.70772C17.2094 8.69403 17.1898 8.68131 17.1703 8.67544C17.4481 7.4447 19.0017 6.28147 18.537 5.09671C18.2425 6.35973 16.7476 7.13163 16.3612 8.25573C16.3397 8.24986 16.3172 8.24399 16.2966 8.23617C16.3837 6.98488 17.7279 5.58979 17.0871 4.49308C16.9991 5.79621 15.6411 6.78628 15.4357 7.95539C15.4122 7.94952 15.3917 7.94365 15.3682 7.94365C15.2635 6.69432 16.369 5.10453 15.5648 4.12816C15.6754 5.42347 14.4955 6.61997 14.4711 7.81059C14.4495 7.80472 14.4241 7.80472 14.4045 7.80472C14.1022 6.58181 14.9485 4.85213 14.0005 4C14.3145 5.26302 13.3342 6.63269 13.4966 7.81059C13.4761 7.81842 13.4507 7.81842 13.4301 7.81842C12.938 6.66008 13.5035 4.81299 12.4342 4.12914C12.9439 5.32564 12.1847 6.82737 12.5359 7.96615C12.5154 7.97006 12.4929 7.97984 12.4714 7.98571C11.8041 6.91542 12.0742 4.99888 10.9099 4.49504C11.6036 5.59761 11.088 7.20794 11.6134 8.27823C11.5948 8.29193 11.5713 8.2978 11.5537 8.31052C10.7211 7.35274 10.6898 5.41956 9.46006 5.09866C10.3181 6.07699 10.0568 7.75874 10.7524 8.7312C10.7338 8.73707 10.7172 8.75077 10.6967 8.76349C9.72421 7.95734 9.38766 6.03688 8.11975 5.91655C9.12645 6.76085 9.12645 8.45825 9.97173 9.31624C9.95999 9.32211 9.94531 9.33581 9.93063 9.35636C8.83686 8.71653 8.20584 6.85477 6.93107 6.92814C8.06007 7.60612 8.32128 9.30353 9.29766 10.0079C9.28787 10.0216 9.27613 10.0324 9.26146 10.0539C8.07474 9.60094 7.16196 7.85266 5.91166 8.12562C7.13652 8.62261 7.65993 10.2603 8.74001 10.7984C8.73218 10.8121 8.7224 10.8248 8.71555 10.8385C7.46916 10.592 6.28929 8.99633 5.09279 9.46104C6.38125 9.76138 7.15707 11.3032 8.31346 11.6623C8.30661 11.676 8.30367 11.6887 8.29389 11.7083C7.02695 11.6701 5.60544 10.2603 4.49112 10.9119C5.81774 11.0058 6.82542 12.4215 8.02974 12.58C8.02681 12.5956 8.02387 12.6142 8.01996 12.6279C6.75791 12.7942 5.1241 11.6173 4.12327 12.4352C5.4538 12.3227 6.67671 13.572 7.89669 13.5319C7.89669 13.5456 7.8918 13.5583 7.8918 13.572C6.66986 13.9525 4.86191 13.0329 4 14.0054C5.29922 13.6845 6.70802 14.7215 7.9094 14.4887C7.91332 14.5024 7.91332 14.5151 7.91332 14.5288C6.76574 15.1001 4.82571 14.4642 4.12229 15.5717C5.36086 15.0405 6.92423 15.8662 8.07377 15.4269C8.07377 15.4406 8.07866 15.4533 8.07866 15.4592C7.04358 16.2174 5.01355 15.8926 4.49014 17.0949C5.63479 16.3788 7.3136 16.9502 8.37998 16.3387C8.38781 16.3446 8.39074 16.3524 8.39466 16.3583C7.49264 17.2828 5.42249 17.2701 5.09182 18.5458C6.11515 17.6477 7.86832 17.9666 8.82904 17.1703C8.83001 17.184 8.83686 17.1898 8.8398 17.1967C8.10018 18.2533 6.03884 18.5722 5.91166 19.8832C6.78237 18.8383 8.57565 18.8726 9.39255 17.9402C9.3994 17.9402 9.40527 17.9402 9.40723 17.9559C8.85252 19.125 6.85085 19.758 6.93205 21.0748C7.6296 19.9037 9.41897 19.665 10.0715 18.6006C10.0793 18.6084 10.0833 18.6084 10.0862 18.6143C9.72616 19.8656 7.84092 20.8018 8.1217 22.1001C8.63533 20.8292 10.3621 20.3097 10.8424 19.1533C10.8464 19.1592 10.8503 19.1592 10.8581 19.167C10.6986 20.4565 8.97579 21.6814 9.46104 22.918C9.76725 21.5884 11.3972 20.8028 11.6887 19.5779C11.6916 19.5858 11.6985 19.5858 11.7043 19.5936C11.7562 20.8967 10.2378 22.3662 10.9099 23.5167C11.0048 22.147 12.4929 21.1227 12.5858 19.8724C12.5927 19.8724 12.5995 19.8724 12.6034 19.8802C12.8578 21.155 11.5928 22.8573 12.4352 23.8894C12.3178 22.5198 13.6287 21.2675 13.5231 20.026H13.5377C13.9927 21.2431 13.0045 23.1234 14.0015 24.002C13.6698 22.6773 14.7685 21.2431 14.4691 20.026H14.4857C15.1256 21.1628 14.4427 23.1655 15.5668 23.8894C15.0307 22.6186 15.8867 21.0366 15.4083 19.8802C15.4122 19.8802 15.42 19.8724 15.424 19.8724C16.2281 20.9026 15.872 22.9835 17.0901 23.5167C16.369 22.3603 16.9619 20.6502 16.3103 19.5936C16.3152 19.5858 16.3211 19.5779 16.3279 19.5779C17.2798 20.4702 17.2544 22.5775 18.5409 22.918C17.6457 21.8858 17.9676 20.1248 17.1595 19.1592C17.1664 19.1592 17.1703 19.1533 17.1752 19.1533C18.2552 19.8851 18.5566 21.966 19.8812 22.1001C18.8364 21.2284 18.8765 19.4273 17.9324 18.6094C17.9392 18.6094 17.9461 18.6016 17.952 18.5937C19.123 19.1534 19.7501 21.154 21.0738 21.0758C19.9106 20.3782 19.665 18.6094 18.6162 17.9422C18.6211 17.9363 18.629 17.9363 18.6339 17.9285C19.8695 18.3032 20.8048 20.164 22.0893 19.8851C20.839 19.3784 20.3185 17.678 19.1876 17.1771C19.1915 17.1713 19.1935 17.1654 19.2013 17.1576C20.48 17.3444 21.6892 19.0262 22.9121 18.5468C21.6002 18.2406 20.8204 16.6586 19.6327 16.3318C19.6366 16.326 19.6415 16.3123 19.6435 16.2996C20.932 16.2996 22.3848 17.7553 23.5138 17.0959C22.1735 17.004 21.1589 15.5727 19.9409 15.422C19.9438 15.4083 19.9478 15.4015 19.9517 15.3878C21.2215 15.195 22.8681 16.3984 23.8806 15.5727C22.5491 15.6871 21.3272 14.4437 20.1082 14.476C20.1082 14.4642 20.1082 14.4515 20.1121 14.4358C21.3282 14.0563 23.1352 14.9729 24 14.0044ZM19.4116 14.6276C19.3774 14.9006 19.3314 15.1608 19.2619 15.421C19.2942 15.4269 19.3314 15.4328 19.3715 15.4406C19.3275 15.4465 19.2844 15.4602 19.2463 15.4748C19.1768 15.7331 19.0829 15.9845 18.9724 16.2262C19.0056 16.2458 19.0389 16.2585 19.077 16.2663C19.035 16.2663 18.9958 16.2663 18.9538 16.2722C18.8393 16.5187 18.7111 16.7574 18.5624 16.9775C18.5937 16.9971 18.6251 17.0177 18.6632 17.0314C18.6251 17.0314 18.5781 17.0235 18.536 17.0235C18.3883 17.2485 18.223 17.4628 18.042 17.6487C18.0674 17.677 18.0987 17.7025 18.133 17.7289C18.0909 17.7152 18.0488 17.7025 18.0077 17.6966C17.8248 17.8952 17.6311 18.0694 17.4217 18.2415C17.4423 18.2738 17.4696 18.2954 17.501 18.3276C17.4608 18.3081 17.4217 18.2895 17.3826 18.2817C17.1713 18.4401 16.9511 18.5928 16.7134 18.7268C16.7349 18.761 16.7574 18.7865 16.7799 18.8207C16.7437 18.7943 16.7105 18.7669 16.6723 18.7542C16.4385 18.8882 16.1988 19.0086 15.9425 19.1005C15.9581 19.1328 15.9728 19.167 15.9943 19.1925C15.9611 19.168 15.9298 19.1406 15.8984 19.1142C15.647 19.2081 15.3907 19.2805 15.1226 19.3412C15.1314 19.3735 15.1412 19.4058 15.1559 19.4459C15.1305 19.4058 15.1011 19.3793 15.0747 19.3519C14.8115 19.4058 14.5464 19.4322 14.2774 19.4459C14.2783 19.486 14.2822 19.5183 14.292 19.5584C14.2715 19.5241 14.249 19.486 14.2294 19.4517C14.1511 19.4517 14.0739 19.4596 14.0005 19.4596C13.8029 19.4596 13.6101 19.4459 13.4203 19.4273C13.4164 19.4596 13.4164 19.4938 13.4203 19.5339C13.4047 19.4938 13.389 19.4596 13.3734 19.4195C13.1024 19.3872 12.8382 19.3412 12.58 19.2747C12.5741 19.2991 12.5633 19.3412 12.5623 19.3793C12.5516 19.3412 12.5428 19.2933 12.5349 19.2531C12.2698 19.1866 12.0174 19.0868 11.7758 18.9821C11.7601 19.0144 11.7513 19.0526 11.7386 19.0868C11.7357 19.0467 11.7357 19.0086 11.7298 18.9606C11.4842 18.8403 11.2475 18.7141 11.0225 18.5742C11.0029 18.6006 10.9892 18.6339 10.9726 18.6681C10.9755 18.628 10.9794 18.5879 10.9823 18.5478C10.7593 18.3951 10.545 18.2367 10.3454 18.0488C10.3249 18.0694 10.3004 18.1026 10.2789 18.1427C10.2926 18.0968 10.3044 18.0566 10.3112 18.0244C10.1136 17.8297 9.92672 17.6379 9.76041 17.4305C9.73301 17.4569 9.7066 17.4784 9.67823 17.5127C9.69779 17.4726 9.71442 17.4305 9.72812 17.3845C9.56474 17.1781 9.41016 16.9531 9.27809 16.7271C9.24483 16.7467 9.21645 16.7672 9.18417 16.7868C9.21059 16.7604 9.23211 16.7144 9.25363 16.687C9.11764 16.4483 9.00513 16.2017 8.90828 15.9552C8.87599 15.9689 8.84371 15.9816 8.80751 16.009C8.83882 15.9689 8.86426 15.9366 8.89165 15.9073C8.79773 15.6627 8.72142 15.3975 8.66761 15.1314C8.63435 15.1451 8.59619 15.1559 8.56097 15.1637C8.59326 15.1373 8.62848 15.1099 8.65978 15.0776C8.60695 14.8233 8.57271 14.5503 8.55804 14.2842C8.5238 14.2842 8.4876 14.292 8.44553 14.2979C8.4876 14.2783 8.5238 14.2519 8.5551 14.2333C8.55217 14.159 8.55021 14.0866 8.55021 14.0083C8.55021 13.8156 8.56195 13.615 8.58348 13.435C8.54826 13.4272 8.5101 13.4272 8.46607 13.435C8.5101 13.4154 8.55021 13.4027 8.58935 13.3812C8.61576 13.1102 8.66859 12.8421 8.73707 12.5829C8.70381 12.577 8.66859 12.577 8.62946 12.5711C8.67055 12.5633 8.71066 12.5555 8.74979 12.5447C8.82219 12.2845 8.91709 12.0252 9.02177 11.7865C8.9934 11.767 8.95915 11.7601 8.91709 11.7464C8.96209 11.7464 9.00611 11.7386 9.04427 11.7327C9.1558 11.494 9.28885 11.2553 9.4356 11.0332C9.40527 11.0156 9.37299 10.9951 9.33581 10.9814C9.37886 10.9814 9.42093 10.9872 9.46006 10.9872C9.60779 10.7671 9.77704 10.5558 9.95705 10.3494C9.93161 10.3357 9.89933 10.3092 9.86607 10.2897C9.91009 10.2956 9.95118 10.3092 9.99031 10.322C10.1742 10.1234 10.3679 9.93064 10.5783 9.77019C10.5568 9.7379 10.5274 9.71051 10.4981 9.69192C10.5411 9.70366 10.5783 9.71834 10.6155 9.7379C10.8258 9.57159 11.0479 9.41897 11.2817 9.28689C11.2621 9.25265 11.2445 9.22526 11.2181 9.19102C11.2543 9.21939 11.2915 9.23896 11.3248 9.2595C11.5576 9.12547 11.8041 9.011 12.0565 8.91904C12.0438 8.88676 12.0252 8.85252 12.0047 8.8124C12.037 8.84665 12.0673 8.87893 12.1006 8.8985C12.35 8.80653 12.6083 8.72631 12.8754 8.67348C12.8656 8.6412 12.8568 8.60695 12.8431 8.56684C12.8656 8.60108 12.8979 8.63337 12.9233 8.66859C13.1855 8.60695 13.4516 8.58054 13.7246 8.56684C13.7197 8.53456 13.7168 8.49445 13.707 8.45433C13.7275 8.49445 13.7539 8.53456 13.7735 8.56097H13.9995C14.1942 8.56097 14.3889 8.56684 14.5767 8.59326C14.5797 8.5551 14.5797 8.52086 14.5767 8.47488C14.5943 8.52086 14.6061 8.5551 14.6256 8.59326C14.8957 8.62554 15.1598 8.67348 15.4181 8.74001C15.4288 8.71359 15.4328 8.67348 15.4367 8.63337C15.4474 8.67348 15.4562 8.71946 15.467 8.7537C15.7253 8.83393 15.9796 8.92785 16.2233 9.03253C16.2389 9.00024 16.2487 8.96013 16.2595 8.92785C16.2595 8.966 16.2624 9.01198 16.2692 9.05405C16.5138 9.16656 16.7525 9.29863 16.9736 9.43853C16.9942 9.41212 17.0108 9.37886 17.0284 9.34657C17.0216 9.38473 17.0167 9.43266 17.0167 9.47278C17.2407 9.6254 17.452 9.79171 17.6497 9.9639C17.6731 9.93944 17.6976 9.91205 17.7191 9.87194C17.7054 9.91792 17.6937 9.95803 17.6888 10.004C17.8854 10.184 18.0684 10.3768 18.2396 10.5891C18.2641 10.5568 18.2924 10.5372 18.3208 10.503C18.3022 10.5509 18.2836 10.5891 18.2709 10.6233C18.4372 10.8297 18.5859 11.0547 18.7229 11.2944C18.7503 11.268 18.7845 11.2563 18.8148 11.2279C18.7914 11.2621 18.7659 11.3023 18.7444 11.3345C18.8794 11.5674 18.9968 11.8061 19.0878 12.0663C19.123 12.0526 19.1553 12.034 19.1896 12.0125C19.1622 12.0448 19.1299 12.0742 19.1064 12.1064C19.2003 12.3588 19.2756 12.6181 19.3314 12.8842C19.3637 12.8783 19.4009 12.8637 19.441 12.8441C19.4028 12.8783 19.3715 12.9057 19.3392 12.9302C19.395 13.1904 19.4244 13.4634 19.441 13.7363C19.4752 13.7305 19.5124 13.7226 19.5515 13.7158C19.5124 13.7363 19.4752 13.7618 19.4439 13.7823C19.4459 13.8547 19.4459 13.9349 19.4459 14.0093C19.4459 14.2001 19.438 14.3938 19.4155 14.5865C19.4527 14.5943 19.4879 14.5943 19.5281 14.5943C19.4879 14.5953 19.4498 14.6159 19.4116 14.6276Z" fill="#F6EC32"/>
<path d="M13.4735 10.8711C12.7124 10.5522 11.8896 10.3663 11.0228 10.332C10.9563 10.3986 10.8878 10.4602 10.8252 10.5248C11.648 10.557 12.4336 10.7449 13.1575 11.0443C13.2603 10.9836 13.364 10.9249 13.4735 10.8711Z" fill="#F6EC32"/>
<path d="M16.6039 10.0318C15.877 9.48689 14.976 9.17578 13.9996 9.17578C13.0242 9.17578 12.1251 9.48689 11.3904 10.0318C12.312 10.0739 13.1905 10.2725 13.9996 10.6188C14.8038 10.2725 15.6862 10.0739 16.6039 10.0318Z" fill="#F6EC32"/>
<path d="M12.7307 11.3095C12.0615 11.0287 11.3346 10.8507 10.5745 10.8027C10.5236 10.8624 10.4766 10.9231 10.4307 10.9827C11.1536 11.0444 11.8424 11.2215 12.4754 11.4944C12.5585 11.4357 12.6446 11.3751 12.7307 11.3095Z" fill="#F6EC32"/>
<path d="M14.6196 12.5273C14.5325 12.5939 14.4435 12.6672 14.3613 12.7396C15.6087 13.9166 16.4002 15.5788 16.4383 17.4346C16.5772 17.3486 16.7103 17.2478 16.8355 17.1421C16.722 15.3058 15.8924 13.6759 14.6196 12.5273Z" fill="#F6EC32"/>
<path d="M14.8414 11.0452C15.5653 10.7449 16.3549 10.558 17.1718 10.5257C17.1091 10.4612 17.0407 10.3995 16.9732 10.333C16.1093 10.3672 15.2846 10.5531 14.5293 10.8721C14.635 10.9249 14.7387 10.9836 14.8414 11.0452Z" fill="#F6EC32"/>
<path d="M15.3555 12.0293C15.2528 12.089 15.1481 12.1555 15.0493 12.2279C16.2977 13.3109 17.1635 14.8342 17.409 16.5639C17.5353 16.4171 17.6497 16.2576 17.7554 16.0845C17.4218 14.4751 16.5599 13.0585 15.3555 12.0293Z" fill="#F6EC32"/>
<path d="M12.1292 11.7685C11.548 11.5083 10.9131 11.3234 10.2518 11.251C9.80857 11.9485 9.55127 12.785 9.55127 13.6763C9.55127 14.2173 9.64421 14.7289 9.8164 15.2064C10.2586 13.8494 11.0706 12.6666 12.1292 11.7685Z" fill="#F6EC32"/>
<path d="M15.5205 11.4954C16.1544 11.2224 16.8451 11.0444 17.5681 10.9837C17.5221 10.924 17.4722 10.8634 17.4253 10.8037C16.6622 10.8516 15.9372 11.0287 15.2671 11.3105C15.3522 11.3751 15.4354 11.4357 15.5205 11.4954Z" fill="#F6EC32"/>
<path d="M12.1543 17.5745C12.1543 17.6411 12.1572 17.7086 12.1572 17.7731C12.7198 18.0275 13.341 18.1723 13.9994 18.1723C14.6569 18.1723 15.2781 18.0275 15.8367 17.7731C15.8406 17.7086 15.8406 17.6411 15.8406 17.5745C15.8406 15.8184 15.1353 14.2306 13.9994 13.0723C12.8577 14.2306 12.1543 15.8184 12.1543 17.5745Z" fill="#F6EC32"/>
<path d="M13.9994 11.1172C13.8937 11.1769 13.7831 11.2297 13.6833 11.2894C13.7861 11.351 13.8937 11.4038 13.9994 11.4635C14.104 11.4038 14.2107 11.351 14.3173 11.2894C14.2126 11.2297 14.106 11.1769 13.9994 11.1172Z" fill="#F6EC32"/>
<path d="M15.866 11.7685C16.9275 12.6666 17.7404 13.8494 18.1817 15.2064C18.3509 14.7289 18.4468 14.2163 18.4468 13.6763C18.4468 12.786 18.1885 11.9485 17.7463 11.251C17.083 11.3234 16.451 11.5083 15.866 11.7685Z" fill="#F6EC32"/>
<path d="M13.6397 12.7396C13.5507 12.6672 13.4666 12.5948 13.3785 12.5273C12.1057 13.6759 11.2741 15.3058 11.1606 17.1421C11.2859 17.2468 11.4219 17.3486 11.5559 17.4346C11.594 15.5797 12.3894 13.9166 13.6397 12.7396Z" fill="#F6EC32"/>
<path d="M13.7373 12.2201C13.8283 12.2886 13.9124 12.3541 14.0005 12.4206C14.0856 12.3541 14.1736 12.2886 14.2627 12.2201C14.1776 12.1496 14.0895 12.0821 14.0005 12.0215C13.9095 12.0821 13.8214 12.1496 13.7373 12.2201Z" fill="#F6EC32"/>
<path d="M12.95 12.2279C12.8463 12.1555 12.7435 12.088 12.6418 12.0293C11.4394 13.0595 10.5785 14.4751 10.2419 16.0845C10.3505 16.2586 10.466 16.4171 10.5883 16.5639C10.8338 14.8342 11.7006 13.3109 12.95 12.2279Z" fill="#F6EC32"/>
<path d="M14.428 11.7425C14.5209 11.8022 14.6041 11.8687 14.6902 11.9352C14.7919 11.8687 14.9005 11.8012 15.0071 11.7503C14.9191 11.6838 14.834 11.6222 14.7459 11.5635C14.6403 11.6163 14.5336 11.675 14.428 11.7425Z" fill="#F6EC32"/>
<path d="M12.9917 11.7494C13.0983 11.8012 13.205 11.8677 13.3048 11.9343C13.3938 11.8677 13.4789 11.8002 13.566 11.7415C13.4633 11.675 13.3596 11.6153 13.251 11.5615C13.1658 11.6222 13.0768 11.6828 12.9917 11.7494Z" fill="#F6EC32"/>
</svg>
