<svg width="32" height="32" viewBox="0 0 32 32" fill="none" xmlns="http://www.w3.org/2000/svg">
<circle cx="16" cy="16" r="16" fill="#3867D6"/>
<g clip-path="url(#clip0_1856_3429)">
<path d="M12.4067 12.5225L11.9658 13.5808C11.8217 13.9258 11.4258 14.0892 11.0808 13.945L10.9042 13.8717C10.5183 13.7108 10.3692 13.2417 10.5908 12.8875L11.2083 11.9025C11.3842 11.6225 11.7367 11.51 12.0417 11.6375C12.3867 11.7808 12.55 12.1775 12.4058 12.5225H12.4067ZM26 16C26 21.5142 21.5142 26 16 26C10.4858 26 6 21.5142 6 16C6 10.4858 10.4858 6 16 6C21.5142 6 26 10.4858 26 16ZM16 24.3333V22.83C16 22.4892 15.7683 22.1925 15.4375 22.1092L14.7608 21.94C14.4808 21.87 14.2258 21.725 14.0217 21.5217L13.1325 20.6325C12.8342 20.3342 12.6667 19.9292 12.6667 19.5075V19.265C12.6667 18.7817 12.8867 18.3242 13.2642 18.0225L14.3142 17.1825C14.5967 16.9567 14.9467 16.8342 15.3083 16.8342H16.3517C16.6658 16.8342 16.9733 16.9275 17.2342 17.1017L19.1033 18.3475C19.2533 18.4475 19.43 18.5008 19.61 18.5008H20.205C20.4475 18.5008 20.6792 18.5967 20.8508 18.7683L21.6083 19.5258C21.7542 19.6717 21.945 19.7633 22.1492 19.7875L23.3492 19.9258C23.5392 19.5708 23.705 19.2008 23.8425 18.8183L21.3583 17.7225V17.7133C21.135 17.6542 20.9675 17.46 20.9675 17.2192C20.9675 17.0242 21.0792 16.8608 21.2375 16.7717V16.7642L21.8892 16.45C21.8892 16.45 22.25 16.2975 22.25 16.0017C22.25 15.6575 21.8333 15.585 21.8333 15.585L19.8142 14.9117C19.5267 14.8158 19.3333 14.5467 19.3333 14.2442C19.3333 13.8342 19.6658 13.5017 20.0758 13.5017H21.1283C21.5175 13.5017 21.8333 13.1858 21.8333 12.7967V12.54C21.8333 12.1508 21.5175 11.835 21.1283 11.835H20.6025C20.3358 11.835 20.0917 11.9858 19.9717 12.225L19.4858 13.1967C19.3883 13.3917 19.2167 13.5408 19.01 13.6092L18.5792 13.7525C18.5792 13.7525 18.2525 13.83 18.18 13.9983C18.1083 14.1667 18.2483 14.4108 18.2483 14.4108L18.3475 14.7092L18.3442 14.7108C18.3592 14.7625 18.3758 14.8125 18.3758 14.8692C18.3758 15.1908 18.115 15.4508 17.7942 15.4508C17.6 15.4508 17.3558 15.3142 17.25 15.1683L16.785 14.7033C16.785 14.7033 16.6725 14.5275 16.4483 14.5275C16.2242 14.5275 16.0917 14.7683 16.0917 14.7683L15.405 15.6842C15.405 15.6842 15.2625 16.0025 14.7608 16.0025C14.355 16.0025 13.7042 15.325 13.7042 15.325C13.4658 14.9683 13.4242 14.515 13.5933 14.1208L14.3725 12.3033C14.5008 12.0033 14.74 11.765 15.0392 11.6367L17.29 10.715C17.29 10.715 17.6825 10.6025 17.6825 10.21C17.6825 9.8175 17.2258 9.84167 17.2258 9.84167L15.1667 10.17C15.1667 10.17 14.8058 10.2658 14.67 9.97C14.5333 9.67333 14.75 9.33667 14.75 9.33667L15.5783 7.68083C11.1783 7.8975 7.66667 11.5467 7.66667 16C7.66667 20.595 11.405 24.3333 16 24.3333Z" fill="white"/>
</g>
<defs>
<clipPath id="clip0_1856_3429">
<rect width="20" height="20" fill="white" transform="translate(6 6)"/>
</clipPath>
</defs>
</svg>
