<svg width="24" height="24" viewBox="0 0 24 24" fill="none" xmlns="http://www.w3.org/2000/svg">
<g clip-path="url(#clip0_405_2455)">
<path d="M7.688 7.827L7.159 9.097C6.986 9.511 6.511 9.707 6.097 9.534L5.885 9.446C5.422 9.253 5.243 8.69 5.509 8.265L6.25 7.083C6.461 6.747 6.884 6.612 7.25 6.765C7.664 6.937 7.86 7.413 7.687 7.827H7.688ZM24 12C24 18.617 18.617 24 12 24C5.383 24 0 18.617 0 12C0 5.383 5.383 0 12 0C18.617 0 24 5.383 24 12ZM12 22V20.196C12 19.787 11.722 19.431 11.325 19.331L10.513 19.128C10.177 19.044 9.871 18.87 9.626 18.626L8.559 17.559C8.201 17.201 8 16.715 8 16.209V15.918C8 15.338 8.264 14.789 8.717 14.427L9.977 13.419C10.316 13.148 10.736 13.001 11.17 13.001H12.422C12.799 13.001 13.168 13.113 13.481 13.322L15.724 14.817C15.904 14.937 16.116 15.001 16.332 15.001H17.046C17.337 15.001 17.615 15.116 17.821 15.322L18.73 16.231C18.905 16.406 19.134 16.516 19.379 16.545L20.819 16.711C21.047 16.285 21.246 15.841 21.411 15.382L18.43 14.067V14.056C18.162 13.985 17.961 13.752 17.961 13.463C17.961 13.229 18.095 13.033 18.285 12.926V12.917L19.067 12.54C19.067 12.54 19.5 12.357 19.5 12.002C19.5 11.589 19 11.502 19 11.502L16.577 10.694C16.232 10.579 16 10.256 16 9.893C16 9.401 16.399 9.002 16.891 9.002H18.154C18.621 9.002 19 8.623 19 8.156V7.848C19 7.381 18.621 7.002 18.154 7.002H17.523C17.203 7.002 16.91 7.183 16.766 7.47L16.183 8.636C16.066 8.87 15.86 9.049 15.612 9.131L15.095 9.303C15.095 9.303 14.703 9.396 14.616 9.598C14.53 9.8 14.698 10.093 14.698 10.093L14.817 10.451L14.813 10.453C14.831 10.515 14.851 10.575 14.851 10.643C14.851 11.029 14.538 11.341 14.153 11.341C13.92 11.341 13.627 11.177 13.5 11.002L12.942 10.444C12.942 10.444 12.807 10.233 12.538 10.233C12.269 10.233 12.11 10.522 12.11 10.522L11.286 11.621C11.286 11.621 11.115 12.003 10.513 12.003C10.026 12.003 9.245 11.19 9.245 11.19C8.959 10.762 8.909 10.218 9.112 9.745L10.047 7.564C10.201 7.204 10.488 6.918 10.847 6.764L13.548 5.658C13.548 5.658 14.019 5.523 14.019 5.052C14.019 4.581 13.471 4.61 13.471 4.61L11 5.004C11 5.004 10.567 5.119 10.404 4.764C10.24 4.408 10.5 4.004 10.5 4.004L11.494 2.017C6.214 2.277 2 6.656 2 12C2 17.514 6.486 22 12 22Z" fill="#2C2C2C"/>
</g>
<defs>
<clipPath id="clip0_405_2455">
<rect width="24" height="24" fill="white"/>
</clipPath>
</defs>
</svg>
