<svg width="129" height="128" viewBox="0 0 129 128" fill="none" xmlns="http://www.w3.org/2000/svg">
<g opacity="0.25">
<path d="M16.2857 112.478H31.7143C32.1879 112.478 32.6421 112.29 32.977 111.955C33.3119 111.62 33.5 111.166 33.5 110.692V82.1209C33.5 81.6473 33.3119 81.1931 32.977 80.8582C32.6421 80.5233 32.1879 80.3352 31.7143 80.3352H16.2857C15.8121 80.3352 15.3579 80.5233 15.023 80.8582C14.6881 81.1931 14.5 81.6473 14.5 82.1209V110.692C14.5 111.166 14.6881 111.62 15.023 111.955C15.3579 112.29 15.8121 112.478 16.2857 112.478ZM18.0714 83.9066H29.9286V108.907H18.0714V83.9066ZM58.7143 66.0495H43.2857C42.8121 66.0495 42.3579 66.2376 42.023 66.5725C41.6881 66.9074 41.5 67.3616 41.5 67.8352V110.692C41.5 111.166 41.6881 111.62 42.023 111.955C42.3579 112.29 42.8121 112.478 43.2857 112.478H58.7143C59.1879 112.478 59.6421 112.29 59.977 111.955C60.3119 111.62 60.5 111.166 60.5 110.692V67.8352C60.5 67.3616 60.3119 66.9074 59.977 66.5725C59.6421 66.2376 59.1879 66.0495 58.7143 66.0495ZM56.9286 108.907H45.0714V69.6209H56.9286V108.907ZM85.7143 51.7638H70.2857C69.8121 51.7638 69.3579 51.9519 69.023 52.2868C68.6881 52.6217 68.5 53.0759 68.5 53.5495V110.692C68.5 111.166 68.6881 111.62 69.023 111.955C69.3579 112.29 69.8121 112.478 70.2857 112.478H85.7143C86.1879 112.478 86.6421 112.29 86.977 111.955C87.3119 111.62 87.5 111.166 87.5 110.692V53.5495C87.5 53.0759 87.3119 52.6217 86.977 52.2868C86.6421 51.9519 86.1879 51.7638 85.7143 51.7638ZM83.9286 108.907H72.0714V55.3352H83.9286V108.907ZM112.714 37.4781H97.2857C96.8121 37.4781 96.3579 37.6662 96.023 38.0011C95.6881 38.336 95.5 38.7902 95.5 39.2638V110.692C95.5 111.166 95.6881 111.62 96.023 111.955C96.3579 112.29 96.8121 112.478 97.2857 112.478H112.714C113.188 112.478 113.642 112.29 113.977 111.955C114.312 111.62 114.5 111.166 114.5 110.692V39.2638C114.5 38.7902 114.312 38.336 113.977 38.0011C113.642 37.6662 113.188 37.4781 112.714 37.4781ZM110.929 108.907H99.0714V41.0495H110.929V108.907ZM15.0232 42.312C15.3581 42.6468 15.8122 42.8348 16.2857 42.8348C16.7592 42.8348 17.2133 42.6468 17.5482 42.312L23.4286 36.4316L29.3089 42.312C29.6457 42.6373 30.0968 42.8173 30.565 42.8132C31.0332 42.8091 31.4811 42.6213 31.8122 42.2902C32.1433 41.9591 32.3311 41.5113 32.3351 41.0431C32.3392 40.5749 32.1592 40.1238 31.8339 39.787L25.9536 33.9066L31.8339 28.0263C32.1592 27.6895 32.3392 27.2384 32.3351 26.7702C32.3311 26.302 32.1433 25.8541 31.8122 25.523C31.4811 25.1919 31.0332 25.0041 30.565 25.0001C30.0968 24.996 29.6457 25.176 29.3089 25.5013L23.4286 31.3816L17.5482 25.5013C17.2114 25.176 16.7603 24.996 16.2921 25.0001C15.8239 25.0041 15.3761 25.1919 15.045 25.523C14.7139 25.8541 14.5261 26.302 14.522 26.7702C14.5179 27.2384 14.6979 27.6895 15.0232 28.0263L20.9036 33.9066L15.0232 39.787C14.6884 40.1219 14.5004 40.576 14.5004 41.0495C14.5004 41.523 14.6884 41.9771 15.0232 42.312Z" fill="#6B7583"/>
</g>
</svg>
