<svg width="32" height="32" viewBox="0 0 32 32" fill="none" xmlns="http://www.w3.org/2000/svg">
<circle cx="16" cy="16" r="16" fill="#32BD72"/>
<g clip-path="url(#clip0_1843_3364)">
<path d="M25.3824 19.5005L23.2158 11.6913C22.7531 10.0208 21.745 8.55309 20.3518 7.52171C18.9587 6.49033 17.2606 5.95457 15.5278 5.99971C13.795 6.04484 12.1271 6.66827 10.7896 7.77077C9.45202 8.87328 8.52167 10.3915 8.1466 12.0838L6.47076 19.6255C6.38967 19.9908 6.39165 20.3698 6.47655 20.7343C6.56145 21.0988 6.7271 21.4395 6.96129 21.7315C7.19548 22.0234 7.49222 22.259 7.82963 22.421C8.16704 22.5829 8.5365 22.667 8.91076 22.6671H11.9166C12.1079 23.609 12.6189 24.4559 13.363 25.0641C14.1072 25.6724 15.0388 26.0046 15.9999 26.0046C16.9611 26.0046 17.8926 25.6724 18.6368 25.0641C19.381 24.4559 19.892 23.609 20.0833 22.6671H22.9749C23.36 22.667 23.7399 22.5778 24.0848 22.4067C24.4298 22.2355 24.7306 21.987 24.9637 21.6805C25.1968 21.374 25.356 21.0178 25.4287 20.6396C25.5015 20.2615 25.4851 19.8716 25.3824 19.5005ZM15.9999 24.3338C15.4847 24.3317 14.9827 24.1704 14.5627 23.8721C14.1426 23.5737 13.825 23.1529 13.6533 22.6671H18.3466C18.1749 23.1529 17.8572 23.5737 17.4372 23.8721C17.0171 24.1704 16.5151 24.3317 15.9999 24.3338ZM23.6374 20.6713C23.5597 20.7744 23.4589 20.8578 23.3431 20.915C23.2274 20.9721 23.0999 21.0014 22.9708 21.0005H8.91076C8.78598 21.0004 8.6628 20.9724 8.5503 20.9184C8.43781 20.8644 8.33888 20.7858 8.26081 20.6885C8.18274 20.5912 8.12753 20.4775 8.09925 20.356C8.07097 20.2344 8.07035 20.1081 8.09743 19.9863L9.77326 12.4446C10.0686 11.1165 10.7994 9.92514 11.8495 9.06001C12.8996 8.19488 14.2088 7.70561 15.5689 7.66998C16.929 7.63435 18.262 8.0544 19.356 8.86336C20.45 9.67232 21.2422 10.8238 21.6066 12.1346L23.7733 19.9438C23.8086 20.0673 23.8148 20.1973 23.7912 20.3236C23.7676 20.4499 23.715 20.5689 23.6374 20.6713Z" fill="white"/>
</g>
<defs>
<clipPath id="clip0_1843_3364">
<rect width="20" height="20" fill="white" transform="translate(6 6)"/>
</clipPath>
</defs>
</svg>
