<svg width="32" height="32" viewBox="0 0 32 32" fill="none" xmlns="http://www.w3.org/2000/svg">
<circle cx="16" cy="16" r="16" fill="#6B7583"/>
<g clip-path="url(#clip0_1856_3583)">
<path d="M15.9202 19.3332C16.6102 19.3332 17.1702 19.8932 17.1702 20.5832C17.1702 21.2732 16.6102 21.8332 15.9202 21.8332C15.2302 21.8332 14.6702 21.2732 14.6702 20.5832C14.6702 19.8932 15.2302 19.3332 15.9202 19.3332ZM16.7535 17.6665C16.7535 17.199 17.0935 16.6457 17.5268 16.4065C18.7768 15.7182 19.4493 14.304 19.201 12.8873C18.9652 11.5432 17.8618 10.439 16.5168 10.2032C15.5318 10.0332 14.5335 10.2965 13.776 10.9315C13.0202 11.5673 12.586 12.4973 12.586 13.484C12.586 13.9448 12.9593 14.3173 13.4193 14.3173C13.8793 14.3173 14.2527 13.9448 14.2527 13.484C14.2527 12.9907 14.4693 12.5257 14.8477 12.2073C15.2318 11.8857 15.7243 11.7557 16.2285 11.8448C16.8843 11.9598 17.4435 12.5198 17.5585 13.1748C17.686 13.9007 17.3577 14.5957 16.7218 14.9457C15.7585 15.4765 15.086 16.5948 15.086 17.6657C15.086 18.1265 15.4593 18.499 15.9193 18.499C16.3793 18.499 16.7527 18.1265 16.7527 17.6657L16.7535 17.6665ZM26.0002 21.8332V16.2832C26.0002 10.884 21.9135 6.37817 16.6968 6.02317C13.801 5.8315 10.9677 6.88817 8.92434 8.934C6.88101 10.9807 5.82434 13.8148 6.02517 16.7115C6.39184 22.0065 11.0685 25.9998 16.9035 25.9998H21.8343C24.1318 25.9998 26.0002 24.1307 26.0002 21.8332ZM16.5843 7.6865C20.9302 7.9815 24.3335 11.7573 24.3335 16.2823V21.8323C24.3335 23.2107 23.2118 24.3323 21.8335 24.3323H16.9027C11.8735 24.3323 7.99767 21.079 7.68684 16.5957C7.51934 14.1798 8.39934 11.8165 10.1027 10.1115C11.671 8.54067 13.7985 7.6665 16.0127 7.6665C16.2027 7.6665 16.3935 7.67317 16.5835 7.68567L16.5843 7.6865Z" fill="white"/>
</g>
<defs>
<clipPath id="clip0_1856_3583">
<rect width="20" height="20" fill="white" transform="translate(6 6)"/>
</clipPath>
</defs>
</svg>
