<svg width="24" height="24" viewBox="0 0 24 24" fill="none" xmlns="http://www.w3.org/2000/svg">
<g clip-path="url(#clip0_1269_2827)">
<path d="M11.904 15.9996C12.732 15.9996 13.404 16.6716 13.404 17.4996C13.404 18.3276 12.732 18.9996 11.904 18.9996C11.076 18.9996 10.404 18.3276 10.404 17.4996C10.404 16.6716 11.076 15.9996 11.904 15.9996ZM12.904 13.9996C12.904 13.4386 13.312 12.7746 13.832 12.4876C15.332 11.6616 16.139 9.96461 15.841 8.26461C15.558 6.65161 14.234 5.3266 12.62 5.0436C11.438 4.8396 10.24 5.1556 9.33101 5.9176C8.42401 6.68061 7.90301 7.79661 7.90301 8.98061C7.90301 9.53361 8.35101 9.98061 8.90301 9.98061C9.45501 9.98061 9.90301 9.53361 9.90301 8.98061C9.90301 8.38861 10.163 7.83061 10.617 7.44861C11.078 7.0626 11.669 6.9066 12.274 7.01361C13.061 7.15161 13.732 7.8236 13.87 8.6096C14.023 9.48061 13.629 10.3146 12.866 10.7346C11.71 11.3716 10.903 12.7136 10.903 13.9986C10.903 14.5516 11.351 14.9986 11.903 14.9986C12.455 14.9986 12.903 14.5516 12.903 13.9986L12.904 13.9996ZM24 18.9996V12.3396C24 5.8606 19.096 0.453604 12.836 0.0276043C9.36101 -0.202396 5.96101 1.0656 3.50901 3.5206C1.05701 5.9766 -0.210988 9.37761 0.0300115 12.8536C0.470012 19.2076 6.08201 23.9996 13.084 23.9996H19.001C21.758 23.9996 24 21.7566 24 18.9996ZM12.701 2.0236C17.916 2.3776 22 6.90861 22 12.3386V18.9986C22 20.6526 20.654 21.9986 19 21.9986H13.083C7.04801 21.9986 2.39701 18.0946 2.02401 12.7146C1.82301 9.81561 2.87901 6.97961 4.92301 4.9336C6.80501 3.0486 9.35801 1.9996 12.015 1.9996C12.243 1.9996 12.472 2.0076 12.7 2.0226L12.701 2.0236Z" fill="#2C2C2C"/>
</g>
<defs>
<clipPath id="clip0_1269_2827">
<rect width="24" height="24" fill="white"/>
</clipPath>
</defs>
</svg>
