<svg width="28" height="28" viewBox="0 0 28 28" fill="none" xmlns="http://www.w3.org/2000/svg">
<mask id="mask0_405_2806" style="mask-type:alpha" maskUnits="userSpaceOnUse" x="0" y="0" width="28" height="28">
<rect width="28" height="28" rx="8" fill="#314199"/>
</mask>
<g mask="url(#mask0_405_2806)">
<path d="M22.2726 -0.357422H5.72456C3.01555 -0.357422 0.721555 1.41458 -0.0544453 3.86108C-0.215445 4.34058 -0.316945 4.84808 -0.341945 5.37858C-0.356445 5.49658 -0.356445 5.60758 -0.356445 5.72458V9.20808H28.3566V5.72458C28.3566 5.60758 28.3566 5.49658 28.3401 5.37858C28.1721 2.18158 25.5136 -0.357422 22.2726 -0.357422Z" fill="#E8E8E8"/>
<path d="M-0.356445 9.20801H28.3566V18.791H-0.356445V9.20801Z" fill="#324095"/>
<path d="M-0.356445 22.276C-0.356445 22.394 -0.356445 22.5035 -0.341945 22.621C-0.316945 23.1525 -0.215445 23.6585 -0.0544453 24.14C0.721555 26.586 3.01555 28.3575 5.72456 28.3575H22.2726C25.5136 28.3575 28.1721 25.819 28.3401 22.621C28.3566 22.5035 28.3566 22.394 28.3566 22.276V18.791H-0.356445V22.276Z" fill="#D81F26"/>
</g>
</svg>
