<svg width="32" height="32" viewBox="0 0 32 32" fill="none" xmlns="http://www.w3.org/2000/svg">
<circle cx="16" cy="16" r="16" fill="#FBAD57"/>
<g clip-path="url(#clip0_1856_3441)">
<path d="M21.4842 7.78353L16.2634 6.0427C16.0925 5.98577 15.9077 5.98577 15.7367 6.0427L10.5159 7.78353C9.68584 8.05927 8.96376 8.58958 8.45229 9.29913C7.94081 10.0087 7.66595 10.8614 7.66675 11.736V16.0002C7.66675 22.3027 15.3334 25.7835 15.6617 25.9285C15.7683 25.9759 15.8835 26.0003 16.0001 26.0003C16.1166 26.0003 16.2319 25.9759 16.3384 25.9285C16.6667 25.7835 24.3334 22.3027 24.3334 16.0002V11.736C24.3342 10.8614 24.0594 10.0087 23.5479 9.29913C23.0364 8.58958 22.3143 8.05927 21.4842 7.78353ZM22.6667 16.0002C22.6667 20.546 17.4009 23.5277 16.0001 24.241C14.5976 23.5302 9.33342 20.5577 9.33342 16.0002V11.736C9.33346 11.2113 9.49865 10.6998 9.80555 10.2742C10.1125 9.84849 10.5455 9.53019 11.0434 9.36437L16.0001 7.71187L20.9567 9.36437C21.4546 9.53019 21.8877 9.84849 22.1946 10.2742C22.5015 10.6998 22.6667 11.2113 22.6667 11.736V16.0002Z" fill="white"/>
<path d="M18.7499 12.9162L15.2599 16.4162L13.3899 14.4662C13.3149 14.3842 13.2242 14.318 13.1231 14.2715C13.0221 14.2251 12.9128 14.1993 12.8017 14.1958C12.6905 14.1922 12.5798 14.2109 12.476 14.2508C12.3722 14.2907 12.2774 14.351 12.1973 14.4281C12.1172 14.5051 12.0533 14.5975 12.0094 14.6996C11.9654 14.8018 11.9424 14.9117 11.9417 15.0229C11.9409 15.1341 11.9624 15.2443 12.0049 15.3471C12.0474 15.4498 12.11 15.5431 12.1891 15.6212L14.1107 17.6212C14.2541 17.776 14.4273 17.9002 14.6199 17.9861C14.8126 18.072 15.0207 18.118 15.2316 18.1212H15.2591C15.4658 18.1219 15.6706 18.0815 15.8616 18.0024C16.0525 17.9233 16.2259 17.8071 16.3716 17.6604L19.9316 14.1004C20.0093 14.0228 20.071 13.9307 20.1132 13.8292C20.1553 13.7278 20.1771 13.6191 20.1772 13.5092C20.1773 13.3994 20.1558 13.2906 20.1139 13.189C20.0719 13.0875 20.0104 12.9952 19.9328 12.9175C19.8552 12.8397 19.7631 12.778 19.6617 12.7359C19.5602 12.6937 19.4515 12.672 19.3416 12.6719C19.2318 12.6718 19.123 12.6933 19.0215 12.7352C18.9199 12.7771 18.8277 12.8387 18.7499 12.9162Z" fill="white"/>
</g>
<defs>
<clipPath id="clip0_1856_3441">
<rect width="20" height="20" fill="white" transform="translate(6 6)"/>
</clipPath>
</defs>
</svg>
