<svg width="67" height="67" viewBox="0 0 67 67" fill="none" xmlns="http://www.w3.org/2000/svg">
<path d="M66.8773 15.8844C66.6467 15.0267 66.0841 14.2955 65.3144 13.8522C64.5441 13.4068 63.6282 13.2863 62.769 13.5169C61.911 13.7481 61.1799 14.3102 60.7367 15.0801L60.1785 16.0518C59.648 15.747 58.9704 15.9264 58.6602 16.4542L55.8243 21.2889L54.8528 20.7305C54.5955 20.5817 54.2892 20.5413 54.0024 20.6188C53.7151 20.6967 53.4709 20.8854 53.3231 21.1438C53.0206 21.6776 53.2048 22.3559 53.7364 22.6623L54.7078 23.2207L45.2178 39.6692L42.8731 45.9341L41.7566 48.0218C41.103 49.1592 41.1727 50.573 41.9354 51.6401L39.4233 54.7218L38.7201 52.9579C38.4028 52.1717 37.6685 51.633 36.824 51.567C35.9791 51.5005 35.1695 51.9181 34.7339 52.645L34.3321 53.326L33.9527 48.8593C33.8655 47.8026 33.0472 46.9531 31.9951 46.8255C30.9424 46.6985 29.9458 47.3293 29.6095 48.3348L26.863 56.5756C26.6711 57.1585 26.9851 57.7866 27.5662 57.9829C27.6753 58.0336 27.7925 58.0642 27.9124 58.0718C28.3921 58.0734 28.8195 57.7676 28.9733 57.3128L31.7083 49.0719L32.0992 53.6051C32.1799 54.5724 32.8749 55.3766 33.8202 55.5958C34.7655 55.815 35.7435 55.3985 36.2413 54.5659L36.6545 53.8843L37.3468 55.6378C37.6407 56.3766 38.3052 56.9039 39.0919 57.0211C39.8785 57.1383 40.6679 56.8281 41.1651 56.2071L43.7666 52.9132C44.0544 52.9885 44.351 53.0261 44.6486 53.025C45.8453 53.0343 46.9563 52.404 47.5625 51.3718L48.679 49.5071L52.9328 44.337L62.5232 27.6873L63.4946 28.2457C63.7536 28.394 63.9422 28.6388 64.0191 28.9272C64.0965 29.2135 64.0561 29.5188 63.9079 29.7756L59.442 37.5143C59.2735 37.7684 59.2163 38.0803 59.2839 38.378C59.3515 38.6752 59.5374 38.932 59.799 39.0885C60.0563 39.2379 60.3627 39.2782 60.6495 39.2008C60.9368 39.1228 61.181 38.9342 61.3287 38.6757L65.7946 30.937C66.24 30.1666 66.3605 29.2506 66.1294 28.3913C65.8982 27.533 65.3362 26.8019 64.5664 26.3586L63.5949 25.8002L66.3861 20.965C66.6909 20.4345 66.5115 19.7573 65.9844 19.4465L66.5426 18.4748C67 17.6924 67.121 16.7579 66.8773 15.8844ZM62.6682 16.1968C62.8159 15.9384 63.0612 15.7492 63.3496 15.6723C63.6364 15.6014 63.9395 15.6412 64.1979 15.784C64.4568 15.9318 64.6455 16.1772 64.7229 16.4651C64.7937 16.7519 64.7539 17.055 64.6111 17.3135L64.0529 18.2851L62.1099 17.1684L62.6682 16.1968ZM47.4507 47.3746L46.8925 47.0507L45.2401 46.09L46.8254 41.8469L50.3422 43.879L47.4507 47.3746ZM44.1013 50.6014C43.6298 50.2726 43.4847 49.6401 43.7666 49.1385L44.3248 48.1674L46.2672 49.284L45.709 50.2442C45.5525 50.5158 45.2897 50.7088 44.9839 50.7769C44.6781 50.8445 44.3581 50.7813 44.1013 50.6014ZM51.6152 42.0481L47.7522 39.8147L56.684 24.3373L60.547 26.5707L51.6152 42.0481ZM61.6635 24.6389L57.8005 22.4055L60.0335 18.5419L63.8964 20.7752L61.6635 24.6389Z" fill="#32D681"/>
<path d="M17.6182 50.0419L13.6664 53.9841L11.2993 51.6166C10.8637 51.1837 10.1605 51.1837 9.72489 51.6166C9.51337 51.8265 9.39453 52.1117 9.39453 52.4094C9.39453 52.7071 9.51337 52.9928 9.72489 53.2022L12.092 55.5696C12.5106 55.9851 13.0765 56.2179 13.6664 56.2174C14.2595 56.2207 14.8303 55.9879 15.2517 55.5696L19.1926 51.6166C19.572 51.1733 19.5464 50.513 19.1343 50.1008C18.7216 49.6881 18.0614 49.6624 17.6182 50.0419Z" fill="#32D681"/>
<path d="M4.46582 53.0461C4.46582 58.2886 8.71476 62.5377 13.9559 62.5377C19.197 62.5377 23.4459 58.2886 23.4459 53.0461C23.4459 52.4294 22.946 51.9294 22.3294 51.9294C21.7129 51.9294 21.213 52.4294 21.213 53.0461C21.213 57.0547 17.9638 60.3044 13.9559 60.3044C9.94789 60.3044 6.69877 57.0547 6.69877 53.0461C6.69877 49.0374 9.94789 45.7877 13.9559 45.7877C15.527 45.7834 17.0562 46.2932 18.31 47.2397C18.8034 47.6099 19.5034 47.5096 19.873 47.0162C20.2431 46.5227 20.1434 45.8232 19.65 45.4529C16.7743 43.2959 12.9266 42.9492 9.71184 44.5565C6.49652 46.1645 4.46582 49.4512 4.46582 53.0461Z" fill="#32D681"/>
<path d="M40.1937 8.93646C40.8103 8.93646 41.3102 8.43701 41.3102 7.81979C41.3102 7.20312 40.8103 6.70312 40.1937 6.70312H11.1653C10.5487 6.70312 10.0488 7.20312 10.0488 7.81979V12.2865C10.0488 12.9037 10.5487 13.4031 11.1653 13.4031H40.1937C40.8103 13.4031 41.3102 12.9037 41.3102 12.2865C41.3102 11.6698 40.8103 11.1698 40.1937 11.1698H12.2818V8.93646H40.1937Z" fill="#32D681"/>
<path d="M14.5149 15.6367C13.8983 15.6367 13.3984 16.1367 13.3984 16.7534C13.3984 17.3706 13.8983 17.8701 14.5149 17.8701H36.8444C37.461 17.8701 37.9609 17.3706 37.9609 16.7534C37.9609 16.1367 37.461 15.6367 36.8444 15.6367H14.5149Z" fill="#32D681"/>
<path d="M43.5422 23.4531H18.9798C18.3632 23.4531 17.8633 23.9531 17.8633 24.5698C17.8633 25.187 18.3632 25.6865 18.9798 25.6865H43.5422C44.1588 25.6865 44.6587 25.187 44.6587 24.5698C44.6587 23.9531 44.1588 23.4531 43.5422 23.4531Z" fill="#32D681"/>
<path d="M32.3779 31.271C32.3779 30.6543 31.878 30.1543 31.2614 30.1543H8.93191C8.31534 30.1543 7.81543 30.6543 7.81543 31.271C7.81543 31.8882 8.31534 32.3876 8.93191 32.3876H31.2614C31.878 32.3876 32.3779 31.8882 32.3779 31.271Z" fill="#32D681"/>
<path d="M43.5431 30.1543H35.7278C35.1112 30.1543 34.6113 30.6543 34.6113 31.271C34.6113 31.8882 35.1112 32.3876 35.7278 32.3876H43.5431C44.1597 32.3876 44.6596 31.8882 44.6596 31.271C44.6596 30.6543 44.1597 30.1543 43.5431 30.1543Z" fill="#32D681"/>
<path d="M20.0967 37.9697C20.7132 37.9697 21.2131 37.4702 21.2131 36.853C21.2131 36.2363 20.7132 35.7363 20.0967 35.7363H8.93191C8.31534 35.7363 7.81543 36.2363 7.81543 36.853C7.81543 37.4702 8.31534 37.9697 8.93191 37.9697H20.0967Z" fill="#32D681"/>
<path d="M24.5628 37.9697H32.3781C32.9947 37.9697 33.4946 37.4702 33.4946 36.853C33.4946 36.2363 32.9947 35.7363 32.3781 35.7363H24.5628C23.9462 35.7363 23.4463 36.2363 23.4463 36.853C23.4463 37.4702 23.9462 37.9697 24.5628 37.9697Z" fill="#32D681"/>
<path d="M50.2414 51.3706C49.6249 51.3706 49.125 51.8706 49.125 52.4872V63.6539C49.125 64.2711 48.6251 64.7706 48.0085 64.7706H3.34943C2.73286 64.7706 2.23295 64.2711 2.23295 63.6539V3.35391C2.23295 2.73723 2.73286 2.23724 3.34943 2.23724H48.0085C48.6251 2.23724 49.125 2.73723 49.125 3.35391V24.3252C49.125 24.9419 49.6249 25.4419 50.2414 25.4419C50.858 25.4419 51.3579 24.9419 51.3579 24.3252V3.35391C51.3579 1.50388 49.8582 0.00390625 48.0085 0.00390625H3.34943C1.49972 0.00390625 0 1.50388 0 3.35391V63.6539C0 65.5045 1.49972 67.0039 3.34943 67.0039H48.0085C49.8582 67.0039 51.3579 65.5045 51.3579 63.6539V52.4872C51.3579 51.8706 50.858 51.3706 50.2414 51.3706Z" fill="#32D681"/>
</svg>
