<svg width="160" height="160" viewBox="0 0 160 160" fill="none" xmlns="http://www.w3.org/2000/svg">
<path d="M120 120C142.091 97.9086 142.091 62.0914 120 40C97.9086 17.9086 62.0914 17.9086 40 40C17.9086 62.0914 17.9086 97.9086 40 120C62.0914 142.091 97.9086 142.091 120 120Z" fill="#46CC6B"/>
<path fill-rule="evenodd" clip-rule="evenodd" d="M135.767 89.5966C131.742 113.148 113.16 131.729 89.6093 135.754L59.1563 105.301C51.8691 99.2875 47.2246 90.1863 47.2246 80.0002C47.2246 61.8915 61.9041 47.2119 80.0129 47.2119C90.199 47.2119 99.3002 51.8567 105.314 59.1436L135.767 89.5966Z" fill="#179C5F"/>
<path fill-rule="evenodd" clip-rule="evenodd" d="M64.6654 81.9471L74.0035 90.5224C75.3656 91.7764 77.4739 91.7097 78.755 90.3888L95.4142 74.4386C96.7692 73.1356 96.8102 70.9799 95.5068 69.6241C94.2034 68.2705 92.0488 68.2281 90.6938 69.531L76.2636 83.3472L69.2786 76.933C67.8948 75.6598 65.7388 75.7491 64.4648 77.1343C63.1911 78.5181 63.2809 80.6727 64.6654 81.9471ZM80.0129 47.2119C98.1217 47.2119 112.801 61.8915 112.801 80.0002C112.801 98.109 98.1217 112.789 80.0129 112.789C61.9041 112.789 47.2246 98.109 47.2246 80.0002C47.2246 61.8915 61.9041 47.2119 80.0129 47.2119Z" fill="white"/>
</svg>
