<svg width="32" height="32" viewBox="0 0 32 32" fill="none" xmlns="http://www.w3.org/2000/svg">
<circle cx="16" cy="16" r="16" fill="#FBAD57"/>
<g clip-path="url(#clip0_1856_3401)">
<path d="M20.6875 24.1518C20.39 24.2726 20.075 24.3335 19.75 24.3335H10.1667C8.78833 24.3335 7.66667 23.2118 7.66667 21.8335V10.1668C7.66667 8.78848 8.78833 7.66681 10.1667 7.66681H13.9292C14.065 7.66681 14.2 7.67348 14.3333 7.68598V11.8335C14.3333 13.2118 15.455 14.3335 16.8333 14.3335H21.6775C21.935 14.3335 22.1783 14.2143 22.3358 14.011C22.4933 13.8076 22.5483 13.5426 22.485 13.2935C22.225 12.2793 21.6983 11.3526 20.9583 10.6135L18.0542 7.70931C16.9533 6.60764 15.4883 6.00098 13.9292 6.00098H10.1667C7.86917 6.00014 6 7.86931 6 10.1668V21.8335C6 24.131 7.86917 26.0001 10.1667 26.0001H19.75C20.2892 26.0001 20.8158 25.8976 21.3125 25.6968C21.74 25.5243 21.945 25.0376 21.7725 24.6118C21.6 24.1851 21.11 23.9801 20.6875 24.1526V24.1518ZM16 8.21598C16.3167 8.39764 16.61 8.62264 16.8758 8.88764L19.78 11.7918C20.0408 12.0535 20.2658 12.3476 20.4492 12.6668H16.8333C16.3733 12.6668 16 12.2935 16 11.8335V8.21598ZM15.1467 22.6401C15.5042 22.7443 15.8708 22.541 15.9733 22.1876L16.1858 21.5001H18.66L18.8608 22.1876C18.9458 22.4785 19.2117 22.6676 19.5008 22.6676C19.5625 22.6676 19.625 22.6585 19.6883 22.6401C20.0417 22.5368 20.2442 22.1668 20.1408 21.8135L19.7892 20.611C19.7842 20.596 19.7825 20.5801 19.7758 20.566L18.7367 17.0151C18.56 16.4085 18.03 16.001 17.4183 16.001C16.8067 16.001 16.2767 16.4085 16.0992 17.0143L14.695 21.8135C14.5917 22.1668 14.7942 22.5368 15.1475 22.6401H15.1467ZM17.4567 17.3885L18.2692 20.1668H16.5975L17.4567 17.3885ZM25.07 21.6535C25.2608 21.9676 25.1608 22.3785 24.8467 22.5701C24.7383 22.636 24.6192 22.6676 24.5008 22.6676C24.275 22.6676 24.0558 22.5535 23.93 22.3476L22.8742 20.6126L21.8183 22.3476C21.6933 22.5543 21.4733 22.6676 21.2475 22.6676C21.1292 22.6676 21.01 22.636 20.9017 22.5701C20.5875 22.3785 20.4875 21.9685 20.6783 21.6535L22.0925 19.3293L20.6783 17.0051C20.4875 16.691 20.5875 16.2801 20.9017 16.0885C21.2167 15.896 21.6267 15.9968 21.8183 16.3118L22.8742 18.0468L23.93 16.3118C24.1208 15.9976 24.5308 15.896 24.8467 16.0885C25.1608 16.2801 25.2608 16.6901 25.07 17.0051L23.6558 19.3293L25.07 21.6535ZM12 22.0001V17.3335H10.8333C10.4658 17.3335 10.1667 17.0351 10.1667 16.6668C10.1667 16.2985 10.465 16.0001 10.8333 16.0001H14.5C14.8675 16.0001 15.1667 16.2985 15.1667 16.6668C15.1667 17.0351 14.8683 17.3335 14.5 17.3335H13.3333V22.0001C13.3333 22.3685 13.035 22.6668 12.6667 22.6668C12.2983 22.6668 12 22.3685 12 22.0001Z" fill="white"/>
</g>
<defs>
<clipPath id="clip0_1856_3401">
<rect width="20" height="20" fill="white" transform="translate(6 6)"/>
</clipPath>
</defs>
</svg>
