<svg width="32" height="32" viewBox="0 0 32 32" fill="none" xmlns="http://www.w3.org/2000/svg">
<circle cx="16" cy="16" r="16" fill="#29A9EA"/>
<path d="M24.6084 8.9714C24.2866 8.68832 23.8293 8.59398 23.4148 8.72515L5.82935 14.2916C5.35009 14.4433 5.02509 14.8541 5.00138 15.3381C4.9777 15.8221 5.2611 16.2604 5.72337 16.4547L10.0724 18.2818C10.0936 18.3764 11.3421 23.9366 11.3845 24.1256C11.439 24.3684 11.5674 24.5846 11.8392 24.6511C12.1142 24.7184 12.3084 24.5741 12.5136 24.4266C12.6277 24.3445 15.7409 22.1061 15.7409 22.1061L19.5139 25.0708C19.7337 25.2436 20.0023 25.3337 20.2762 25.3337C20.4065 25.3336 20.5382 25.3132 20.6662 25.2715C21.0633 25.1422 21.3577 24.831 21.4537 24.4391L24.968 10.0916C25.0679 9.68367 24.9301 9.25449 24.6084 8.9714ZM12.7947 19.3288C12.7926 19.3337 12.7904 19.3392 12.7885 19.3458L12.061 21.7865L11.2491 18.1708L16.8318 15.1923L12.9286 19.1112C12.8671 19.173 12.8219 19.2476 12.7947 19.3288ZM13.0256 22.6494L13.356 21.5408L13.6721 20.4804L14.8045 21.3703L13.0256 22.6494ZM23.8246 9.8333L20.3103 24.1808C20.3085 24.1879 20.3062 24.1977 20.289 24.2033C20.272 24.2089 20.2637 24.2025 20.2578 24.1979L16.1293 20.9537C16.1292 20.9537 16.1291 20.9536 16.129 20.9535L14.2161 19.4504L20.3615 13.2802C20.5622 13.0786 20.5794 12.7665 20.402 12.5458C20.2244 12.325 19.9056 12.2619 19.6518 12.3974L10.5522 17.2522L6.19423 15.4213C6.18095 15.4157 6.17364 15.4126 6.1747 15.391C6.17575 15.3696 6.18333 15.3671 6.19708 15.3628L23.7826 9.79635C23.7911 9.79369 23.8007 9.79061 23.8148 9.80299C23.829 9.81544 23.8266 9.8249 23.8246 9.8333Z" fill="white" stroke="white" stroke-width="0.4"/>
</svg>
