<svg width="26" height="24" viewBox="0 0 26 24" fill="none" xmlns="http://www.w3.org/2000/svg">
<path d="M24.5301 2.36529C24.144 2.02559 23.5952 1.91239 23.0978 2.06979L1.99521 8.74954C1.4201 8.93156 1.0301 9.42453 1.00165 10.0053C0.973245 10.5861 1.31332 11.1121 1.86804 11.3452L7.08688 13.5378C7.11233 13.6512 8.6105 20.3236 8.66146 20.5504C8.72685 20.8417 8.88083 21.1012 9.20703 21.181C9.53699 21.2617 9.7701 21.0885 10.0163 20.9115C10.1533 20.813 13.8891 18.1269 13.8891 18.1269L18.4167 21.6846C18.6804 21.8919 19.0027 22 19.3314 22C19.4879 22 19.6458 21.9755 19.7995 21.9254C20.276 21.7703 20.6293 21.3968 20.7444 20.9265L24.9616 3.70952C25.0815 3.22002 24.9162 2.705 24.5301 2.36529ZM10.3536 14.7942C10.3511 14.8001 10.3485 14.8067 10.3461 14.8146L9.47314 17.7434L8.49889 13.4045L15.1981 9.83039L10.5143 14.5331C10.4406 14.6072 10.3863 14.6968 10.3536 14.7942ZM10.6307 18.7788L11.0272 17.4485L11.4065 16.1761L12.7655 17.244L10.6307 18.7788ZM23.5895 3.39957L19.3724 20.6165C19.3702 20.6251 19.3674 20.6369 19.3468 20.6436C19.3264 20.6502 19.3164 20.6426 19.3094 20.6371L14.3551 16.7441C14.355 16.744 14.3549 16.7439 14.3548 16.7438L12.0593 14.9401L19.4339 7.5358C19.6747 7.29396 19.6953 6.91942 19.4824 6.65452C19.2693 6.38959 18.8867 6.31392 18.5822 6.4765L7.66259 12.3023L2.43307 10.1051C2.41714 10.0985 2.40837 10.0947 2.40964 10.0689C2.4109 10.0431 2.42 10.0401 2.4365 10.0349L23.5391 3.35523C23.5493 3.35203 23.5608 3.34834 23.5778 3.3632C23.5948 3.37814 23.592 3.38948 23.5895 3.39957Z" fill="#29A9EA" stroke="#29A9EA" stroke-width="0.4"/>
</svg>
