<svg width="56" height="56" viewBox="0 0 56 56" fill="none" xmlns="http://www.w3.org/2000/svg">
<g filter="url(#filter0_d_447_12905)">
<rect x="8" y="7" width="40" height="40" rx="8" fill="white" shape-rendering="crispEdges"/>
<g clip-path="url(#clip0_447_12905)">
<path d="M40 26.9998C40 31.4108 36.411 34.9998 32 34.9998H19L21.293 37.2928C21.4805 37.4804 21.5858 37.7347 21.5858 37.9998C21.5858 38.265 21.4805 38.5193 21.293 38.7069C21.1055 38.8944 20.8512 38.9997 20.586 38.9997C20.3208 38.9997 20.0665 38.8944 19.879 38.7069L16.586 35.4138C16.2113 35.0387 16.0008 34.5301 16.0008 33.9998C16.0008 33.4696 16.2113 32.961 16.586 32.5858L19.879 29.2928C19.9718 29.2 20.0821 29.1264 20.2034 29.0761C20.3247 29.0259 20.4547 29 20.586 29C20.7173 29 20.8473 29.0259 20.9686 29.0761C21.0899 29.1264 21.2002 29.2 21.293 29.2928C21.3858 29.3857 21.4595 29.4959 21.5097 29.6172C21.56 29.7385 21.5858 29.8685 21.5858 29.9998C21.5858 30.1312 21.56 30.2612 21.5097 30.3825C21.4595 30.5038 21.3858 30.614 21.293 30.7068L19 32.9998H32C35.309 32.9998 38 30.3088 38 26.9998C38 26.7346 38.1054 26.4803 38.2929 26.2927C38.4804 26.1052 38.7348 25.9998 39 25.9998C39.2652 25.9998 39.5196 26.1052 39.7071 26.2927C39.8946 26.4803 40 26.7346 40 26.9998ZM17 27.9998C17.2652 27.9998 17.5196 27.8945 17.7071 27.707C17.8946 27.5194 18 27.2651 18 26.9998C18 23.6908 20.691 20.9998 24 20.9998H37L34.707 23.2928C34.6142 23.3857 34.5405 23.4959 34.4903 23.6172C34.44 23.7385 34.4142 23.8685 34.4142 23.9998C34.4142 24.1312 34.44 24.2612 34.4903 24.3825C34.5405 24.5038 34.6142 24.614 34.707 24.7068C34.7998 24.7997 34.9101 24.8733 35.0314 24.9236C35.1527 24.9738 35.2827 24.9997 35.414 24.9997C35.5453 24.9997 35.6753 24.9738 35.7966 24.9236C35.9179 24.8733 36.0282 24.7997 36.121 24.7068L39.414 21.4138C40.194 20.6348 40.194 19.3648 39.414 18.5858L36.121 15.2928C36.0282 15.2 35.9179 15.1264 35.7966 15.0761C35.6753 15.0259 35.5453 15 35.414 15C35.2827 15 35.1527 15.0259 35.0314 15.0761C34.9101 15.1264 34.7998 15.2 34.707 15.2928C34.6142 15.3857 34.5405 15.4959 34.4903 15.6172C34.44 15.7385 34.4142 15.8685 34.4142 15.9998C34.4142 16.1312 34.44 16.2612 34.4903 16.3825C34.5405 16.5038 34.6142 16.614 34.707 16.7068L37 18.9998H24C19.589 18.9998 16 22.5888 16 26.9998C16 27.2651 16.1054 27.5194 16.2929 27.707C16.4804 27.8945 16.7348 27.9998 17 27.9998Z" fill="#54B25A"/>
</g>
</g>
<defs>
<filter id="filter0_d_447_12905" x="0" y="0" width="56" height="56" filterUnits="userSpaceOnUse" color-interpolation-filters="sRGB">
<feFlood flood-opacity="0" result="BackgroundImageFix"/>
<feColorMatrix in="SourceAlpha" type="matrix" values="0 0 0 0 0 0 0 0 0 0 0 0 0 0 0 0 0 0 127 0" result="hardAlpha"/>
<feOffset dy="1"/>
<feGaussianBlur stdDeviation="4"/>
<feComposite in2="hardAlpha" operator="out"/>
<feColorMatrix type="matrix" values="0 0 0 0 0.811765 0 0 0 0 0.811765 0 0 0 0 0.811765 0 0 0 0.25 0"/>
<feBlend mode="normal" in2="BackgroundImageFix" result="effect1_dropShadow_447_12905"/>
<feBlend mode="normal" in="SourceGraphic" in2="effect1_dropShadow_447_12905" result="shape"/>
</filter>
<clipPath id="clip0_447_12905">
<rect width="24" height="24" fill="white" transform="translate(16 15)"/>
</clipPath>
</defs>
</svg>
