<svg width="24" height="24" viewBox="0 0 24 24" fill="none" xmlns="http://www.w3.org/2000/svg">
<path d="M13.1195 19.3698L13.1195 19.3698L13.1123 19.3655C12.7496 19.1549 12.3269 19.0953 12.0014 19.0953C11.6798 19.0953 11.2536 19.1535 10.8896 19.3704C10.8883 19.3712 10.887 19.372 10.8856 19.3728L7.89197 21.139L7.88992 21.1403C7.12969 21.5912 6.61281 21.6763 6.3027 21.667C6.00198 21.658 5.81505 21.5579 5.71044 21.4831C5.61235 21.4097 5.46004 21.2622 5.36008 20.9771C5.25737 20.684 5.18225 20.1659 5.3836 19.3091L5.3844 19.3056L6.09291 16.2421C6.18881 15.8466 6.12515 15.4394 6.04076 15.1475C5.95448 14.8492 5.78997 14.476 5.50722 14.1932L3.02722 11.7132C2.5214 11.2074 2.34368 10.796 2.28214 10.5215C2.21988 10.2439 2.26046 10.0339 2.30061 9.91105C2.34204 9.78433 2.43468 9.58702 2.64963 9.39522C2.86178 9.20593 3.2458 8.97471 3.94518 8.8566C3.94558 8.85653 3.94598 8.85646 3.94638 8.85639L7.13402 8.32679L7.13452 8.32671C7.50358 8.2652 7.83483 8.07326 8.06088 7.90505C8.28358 7.73932 8.56234 7.47894 8.72671 7.14321L10.494 3.61854L10.4957 3.6153C10.8246 2.9532 11.1668 2.64541 11.412 2.49686C11.6593 2.34702 11.8725 2.32031 12.0001 2.32031C12.1277 2.32031 12.3409 2.34702 12.5882 2.49686C12.8334 2.64541 13.1756 2.9532 13.5046 3.6153L13.5057 3.61753L15.2657 7.13753L15.269 7.1441L15.2724 7.15063C15.44 7.47396 15.7145 7.72995 15.9411 7.89725C16.166 8.06336 16.4968 8.25522 16.8657 8.31671L16.8662 8.31679L20.0548 8.84655C20.0551 8.8466 20.0553 8.84664 20.0556 8.84668C20.7615 8.96514 21.1472 9.19708 21.3581 9.38522C21.5716 9.57568 21.6587 9.76864 21.6943 9.8844C21.7346 10.0154 21.7736 10.2307 21.7106 10.5115C21.6484 10.7889 21.4712 11.2008 20.9708 11.7054C20.9706 11.7056 20.9704 11.7059 20.9702 11.7061L18.493 14.1932C18.4927 14.1935 18.4924 14.1938 18.4921 14.1941C18.2079 14.4787 18.0465 14.8513 17.9621 15.1476C17.877 15.4463 17.8215 15.8388 17.9019 16.2178L17.9038 16.2267L17.9058 16.2356L18.6156 19.3045C18.8131 20.1634 18.7384 20.6839 18.6357 20.9791C18.5363 21.2646 18.3861 21.4107 18.2908 21.4824C18.1724 21.5665 17.9736 21.6703 17.6601 21.6703C17.3497 21.6703 16.8438 21.5715 16.1082 21.139C16.1078 21.1388 16.1075 21.1386 16.1071 21.1384L13.1195 19.3698Z" stroke="#6B7583" stroke-width="2"/>
</svg>
