<svg width="68" height="68" viewBox="0 0 68 68" fill="none" xmlns="http://www.w3.org/2000/svg">
<g clip-path="url(#clip0_164_1570)">
<path d="M34 1.13333C52.1518 1.13333 66.8667 15.8482 66.8667 34C66.8667 52.1518 52.1518 66.8667 34 66.8667C15.8482 66.8667 1.13333 52.1518 1.13333 34C1.13333 15.8482 15.8482 1.13333 34 1.13333Z" fill="#54B25A" stroke="white" stroke-width="2.26667"/>
<path d="M34 32.6651C38.5468 32.6651 42.2327 28.9792 42.2327 24.4324C42.2327 19.8856 38.5468 16.1997 34 16.1997C29.4532 16.1997 25.7673 19.8856 25.7673 24.4324C25.7673 28.9792 29.4532 32.6651 34 32.6651Z" fill="white"/>
<path d="M29.9981 34.7192H38.0019C40.7377 34.7192 43.3614 35.806 45.2959 37.7405C47.2304 39.675 48.3171 42.2987 48.3171 45.0345V49.4686C48.3171 50.0863 48.0718 50.6787 47.635 51.1155C47.1982 51.5523 46.6058 51.7977 45.9881 51.7977H22.0072C21.3895 51.7977 20.797 51.5523 20.3602 51.1155C19.9235 50.6787 19.6781 50.0863 19.6781 49.4686V45.0345C19.6781 43.6795 19.945 42.3377 20.4637 41.0859C20.9824 39.8341 21.7427 38.6967 22.701 37.7388C23.6594 36.7809 24.7971 36.0212 26.0492 35.5031C27.3012 34.985 28.6431 34.7186 29.9981 34.7192Z" fill="white"/>
</g>
<defs>
<clipPath id="clip0_164_1570">
<rect width="68" height="68" fill="white"/>
</clipPath>
</defs>
</svg>
