<svg width="49" height="15" viewBox="0 0 49 15" fill="none" xmlns="http://www.w3.org/2000/svg">
<path d="M21.7022 14.75H17.7702L20.2277 0.258934H24.1601L21.7022 14.75ZM14.4624 0.258934L10.7138 10.226L10.2702 8.07969L10.2706 8.08047L8.94758 1.56369C8.94758 1.56369 8.7876 0.258934 7.08237 0.258934H0.885218L0.8125 0.504302C0.8125 0.504302 2.7076 0.882626 4.92549 2.16063L8.3416 14.7504H12.4384L18.6942 0.258934H14.4624ZM45.3896 14.75H49L45.8521 0.258547H42.6914C41.2318 0.258547 40.8762 1.33848 40.8762 1.33848L35.012 14.75H39.1108L39.9305 12.5975H44.929L45.3896 14.75ZM41.0629 9.624L43.1289 4.2011L44.2911 9.624H41.0629ZM35.3194 3.7437L35.8805 0.631831C35.8805 0.631831 34.1491 0 32.344 0C30.3928 0 25.7591 0.81828 25.7591 4.79727C25.7591 8.54097 31.1975 8.58749 31.1975 10.5539C31.1975 12.5203 26.3194 12.168 24.7095 10.928L24.1249 14.1817C24.1249 14.1817 25.8807 15 28.5631 15C31.2464 15 35.2944 13.6669 35.2944 10.0388C35.2944 6.27103 29.807 5.92023 29.807 4.28211C29.8074 2.64362 33.6368 2.8541 35.3194 3.7437Z" fill="white"/>
</svg>
