<svg width="32" height="32" viewBox="0 0 32 32" fill="none" xmlns="http://www.w3.org/2000/svg">
<circle cx="16" cy="16" r="16" fill="#42C553"/>
<g clip-path="url(#clip0_1856_3578)">
<path fill-rule="evenodd" clip-rule="evenodd" d="M23.0526 8.90667C21.1809 7.03333 18.6926 6.00083 16.0418 6C10.5793 6 6.13344 10.445 6.13094 15.91C6.13011 17.6567 6.58677 19.3617 7.45427 20.865L6.04761 26L11.3009 24.6217C12.7484 25.4117 14.3784 25.8275 16.0368 25.8283H16.0409C21.5026 25.8283 25.9493 21.3825 25.9518 15.9175C25.9534 13.27 24.9234 10.7792 23.0526 8.90667ZM16.0418 24.1542H16.0384C14.5601 24.1542 13.1109 23.7567 11.8459 23.0058L11.5451 22.8275L8.42761 23.645L9.26011 20.605L9.06427 20.2933C8.23927 18.9817 7.80427 17.4658 7.80511 15.91C7.80677 11.3683 11.5026 7.67333 16.0459 7.67333C18.2459 7.67333 20.3143 8.53167 21.8693 10.0883C23.4243 11.6458 24.2801 13.715 24.2793 15.9158C24.2768 20.4592 20.5818 24.1542 16.0418 24.1542ZM20.5601 17.985C20.3126 17.8608 19.0951 17.2617 18.8676 17.1792C18.6409 17.0967 18.4759 17.055 18.3101 17.3025C18.1443 17.55 17.6709 18.1083 17.5259 18.2742C17.3818 18.4392 17.2368 18.46 16.9893 18.3358C16.7418 18.2117 15.9434 17.9508 14.9976 17.1067C14.2618 16.45 13.7643 15.6392 13.6201 15.3908C13.4759 15.1425 13.6051 15.0092 13.7284 14.8858C13.8401 14.775 13.9759 14.5967 14.1001 14.4517C14.2251 14.3083 14.2659 14.205 14.3493 14.0392C14.4318 13.8742 14.3909 13.7292 14.3284 13.605C14.2659 13.4817 13.7709 12.2625 13.5651 11.7667C13.3643 11.2833 13.1601 11.3492 13.0076 11.3417C12.8634 11.3342 12.6984 11.3333 12.5326 11.3333C12.3676 11.3333 12.0993 11.395 11.8726 11.6433C11.6459 11.8917 11.0059 12.4908 11.0059 13.7092C11.0059 14.9283 11.8934 16.1058 12.0168 16.2708C12.1401 16.4358 13.7626 18.9375 16.2468 20.01C16.8376 20.265 17.2993 20.4175 17.6584 20.5317C18.2518 20.72 18.7918 20.6933 19.2184 20.63C19.6943 20.5592 20.6834 20.0308 20.8901 19.4525C21.0968 18.8742 21.0968 18.3775 21.0343 18.275C20.9726 18.1708 20.8076 18.1092 20.5601 17.985Z" fill="white"/>
</g>
<defs>
<clipPath id="clip0_1856_3578">
<rect width="20" height="20" fill="white" transform="translate(6 6)"/>
</clipPath>
</defs>
</svg>
